<svg xmlns="http://www.w3.org/2000/svg" xmlns:xlink="http://www.w3.org/1999/xlink" width="500" zoomAndPan="magnify" viewBox="0 0 375 374.999991" height="500" preserveAspectRatio="xMidYMid meet" version="1.0"><defs><clipPath id="95c1947e56"><path d="M 3.542969 7 L 314 7 L 314 368 L 3.542969 368 Z M 3.542969 7 " clip-rule="nonzero"/></clipPath><clipPath id="40733c5c3d"><path d="M 46 0 L 371.792969 0 L 371.792969 375 L 46 375 Z M 46 0 " clip-rule="nonzero"/></clipPath></defs><g clip-path="url(#95c1947e56)"><path fill="#111167" d="M 3.761719 7.96875 L 313.042969 189.882812 L 3.761719 367.242188 L 74.484375 187.605469 L 3.761719 7.96875 " fill-opacity="1" fill-rule="nonzero"/></g><g clip-path="url(#40733c5c3d)"><path fill="#faf9f7" d="M 50.140625 14.789062 C 71.539062 27.375 92.933594 39.960938 114.332031 52.546875 C 157.726562 78.070312 201.125 103.59375 244.511719 129.117188 C 278.707031 149.226562 312.890625 169.335938 347.078125 189.4375 C 351.195312 191.855469 355.308594 194.28125 359.425781 196.699219 L 359.425781 183.058594 C 337.796875 195.457031 316.179688 207.851562 294.558594 220.253906 C 250.871094 245.308594 207.179688 270.363281 163.492188 295.417969 C 129.488281 314.921875 95.484375 334.414062 61.480469 353.917969 C 57.699219 356.082031 53.917969 358.253906 50.140625 360.417969 C 54.007812 363.398438 57.875 366.367188 61.742188 369.34375 C 75.117188 335.371094 88.492188 301.40625 101.867188 267.441406 C 109.992188 246.785156 118.121094 226.136719 126.257812 205.480469 C 128.175781 200.59375 130.105469 195.710938 132.023438 190.828125 C 133.335938 187.496094 132.238281 184.921875 131.035156 181.878906 C 115.246094 141.785156 99.464844 101.683594 83.683594 61.59375 C 76.371094 43.019531 69.058594 24.441406 61.742188 5.867188 C 60.167969 1.867188 56.515625 -0.882812 52.027344 0.351562 C 48.207031 1.402344 44.929688 6.058594 46.511719 10.066406 C 59.882812 44.035156 73.257812 78 86.628906 111.964844 C 96.828125 137.878906 107.03125 163.789062 117.230469 189.695312 L 117.230469 185.503906 C 103.855469 219.46875 90.484375 253.433594 77.113281 287.40625 C 66.914062 313.316406 56.710938 339.222656 46.511719 365.140625 C 43.84375 371.910156 52.585938 377.222656 58.113281 374.058594 C 79.734375 361.664062 101.351562 349.261719 122.972656 336.859375 C 166.660156 311.804688 210.355469 286.757812 254.046875 261.703125 C 288.050781 242.199219 322.054688 222.699219 356.050781 203.195312 C 359.835938 201.03125 363.613281 198.867188 367.394531 196.695312 C 372.5625 193.734375 372.472656 186.039062 367.394531 183.054688 C 345.996094 170.472656 324.597656 157.886719 303.199219 145.296875 C 259.804688 119.777344 216.414062 94.253906 173.019531 68.730469 C 138.832031 48.621094 104.636719 28.515625 70.453125 8.402344 C 66.339844 5.984375 62.226562 3.5625 58.113281 1.144531 C 49.3125 -4.03125 41.367188 9.625 50.140625 14.785156 " fill-opacity="1" fill-rule="nonzero"/></g></svg>