<svg xmlns="http://www.w3.org/2000/svg" xmlns:xlink="http://www.w3.org/1999/xlink" width="500" zoomAndPan="magnify" viewBox="0 0 375 374.999991" height="500" preserveAspectRatio="xMidYMid meet" version="1.0"><defs><clipPath id="7beff1dcdd"><path d="M 22.015625 6.535156 L 352.765625 6.535156 L 352.765625 337.285156 L 22.015625 337.285156 Z M 22.015625 6.535156 " clip-rule="nonzero"/></clipPath></defs><g clip-path="url(#7beff1dcdd)"><path fill="#000000" d="M 209.757812 91.089844 L 265.058594 91.089844 L 311.273438 123.332031 C 312.078125 123.894531 313.015625 124.175781 313.953125 124.175781 C 314.871094 124.175781 315.785156 123.910156 316.582031 123.371094 C 318.1875 122.285156 318.957031 120.320312 318.519531 118.429688 L 312.171875 91.089844 L 314.660156 91.089844 C 322.5625 91.089844 328.988281 83.550781 328.988281 74.285156 L 328.988281 23.339844 C 328.988281 14.074219 322.5625 6.535156 314.660156 6.535156 L 209.757812 6.535156 C 201.855469 6.535156 195.425781 14.074219 195.425781 23.339844 L 195.425781 74.285156 C 195.425781 83.550781 201.855469 91.089844 209.757812 91.089844 Z M 204.800781 23.339844 C 204.800781 18.960938 207.414062 15.910156 209.757812 15.910156 L 314.660156 15.910156 C 317.003906 15.910156 319.617188 18.960938 319.617188 23.339844 L 319.617188 74.285156 C 319.617188 78.667969 317.003906 81.71875 314.660156 81.71875 L 306.273438 81.71875 C 304.84375 81.71875 303.496094 82.371094 302.605469 83.488281 C 301.714844 84.609375 301.386719 86.070312 301.710938 87.464844 L 306.632812 108.664062 L 269.214844 82.5625 C 268.429688 82.011719 267.492188 81.71875 266.535156 81.71875 L 209.757812 81.71875 C 207.414062 81.71875 204.800781 78.667969 204.800781 74.289062 Z M 220.515625 38.371094 C 220.515625 35.78125 222.617188 33.683594 225.203125 33.683594 L 299.214844 33.683594 C 301.804688 33.683594 303.902344 35.78125 303.902344 38.371094 C 303.902344 40.957031 301.804688 43.058594 299.214844 43.058594 L 225.203125 43.058594 C 222.613281 43.058594 220.515625 40.957031 220.515625 38.371094 Z M 220.515625 59.253906 C 220.515625 56.667969 222.617188 54.570312 225.203125 54.570312 L 299.214844 54.570312 C 301.804688 54.570312 303.902344 56.667969 303.902344 59.253906 C 303.902344 61.84375 301.804688 63.941406 299.214844 63.941406 L 225.203125 63.941406 C 222.613281 63.941406 220.515625 61.84375 220.515625 59.253906 Z M 60.125 91.089844 L 62.613281 91.089844 L 56.265625 118.429688 C 55.828125 120.320312 56.597656 122.285156 58.203125 123.371094 C 59 123.90625 59.914062 124.175781 60.832031 124.175781 C 61.769531 124.175781 62.707031 123.894531 63.511719 123.332031 L 109.722656 91.089844 L 165.027344 91.089844 C 172.929688 91.089844 179.355469 83.550781 179.355469 74.285156 L 179.355469 23.339844 C 179.355469 14.074219 172.929688 6.535156 165.027344 6.535156 L 60.125 6.535156 C 52.222656 6.535156 45.796875 14.074219 45.796875 23.339844 L 45.796875 74.285156 C 45.796875 83.550781 52.222656 91.089844 60.125 91.089844 Z M 55.167969 23.339844 C 55.167969 18.960938 57.78125 15.910156 60.125 15.910156 L 165.027344 15.910156 C 167.371094 15.910156 169.984375 18.960938 169.984375 23.339844 L 169.984375 74.285156 C 169.984375 78.667969 167.371094 81.71875 165.027344 81.71875 L 108.25 81.71875 C 107.292969 81.71875 106.355469 82.011719 105.570312 82.558594 L 68.15625 108.664062 L 73.078125 87.464844 C 73.398438 86.070312 73.070312 84.609375 72.179688 83.488281 C 71.292969 82.371094 69.941406 81.714844 68.511719 81.714844 L 60.125 81.714844 C 57.78125 81.714844 55.167969 78.664062 55.167969 74.285156 Z M 78.035156 49.503906 C 78.035156 46.175781 80.730469 43.480469 84.058594 43.480469 C 87.386719 43.480469 90.085938 46.175781 90.085938 49.503906 C 90.085938 52.832031 87.386719 55.53125 84.058594 55.53125 C 80.730469 55.53125 78.035156 52.832031 78.035156 49.503906 Z M 106.550781 49.503906 C 106.550781 46.175781 109.246094 43.480469 112.574219 43.480469 C 115.90625 43.480469 118.601562 46.175781 118.601562 49.503906 C 118.601562 52.832031 115.90625 55.53125 112.574219 55.53125 C 109.25 55.53125 106.550781 52.832031 106.550781 49.503906 Z M 135.066406 49.503906 C 135.066406 46.175781 137.765625 43.480469 141.09375 43.480469 C 144.421875 43.480469 147.117188 46.175781 147.117188 49.503906 C 147.117188 52.832031 144.421875 55.53125 141.09375 55.53125 C 137.765625 55.53125 135.066406 52.832031 135.066406 49.503906 Z M 351.238281 300.515625 L 330.730469 223.976562 C 328.15625 214.363281 321.960938 206.3125 313.289062 201.308594 C 304.617188 196.300781 294.546875 194.960938 284.933594 197.535156 C 268.570312 201.921875 262.050781 216.085938 256.300781 228.585938 L 236.472656 271.609375 L 191.402344 276.210938 C 190.035156 276.351562 188.703125 276.652344 187.414062 277.082031 C 186.117188 276.648438 184.769531 276.351562 183.378906 276.207031 L 138.3125 271.609375 L 115.957031 223.101562 C 111.765625 214.007812 104.5 201.460938 89.847656 197.535156 C 80.238281 194.960938 70.167969 196.300781 61.496094 201.308594 C 52.824219 206.3125 46.628906 214.363281 44.050781 223.976562 L 23.546875 300.515625 C 22.488281 304.460938 22.015625 308.039062 22.015625 312.125 L 22.015625 332.597656 C 22.015625 335.1875 24.117188 337.285156 26.703125 337.285156 L 91.867188 337.285156 C 94.453125 337.285156 96.554688 335.1875 96.554688 332.597656 L 96.554688 317 L 104.46875 287.449219 L 108.847656 296.941406 C 111.78125 303.277344 117.917969 307.40625 124.886719 307.75 L 179.558594 313.332031 C 182.285156 313.613281 184.933594 313.28125 187.378906 312.460938 C 189.289062 313.101562 191.289062 313.429688 193.304688 313.429688 C 193.945312 313.429688 194.582031 313.398438 195.222656 313.332031 L 223.773438 310.417969 C 221.832031 314.375 221.269531 319.023438 222.53125 323.59375 C 224.816406 331.855469 232.339844 337.285156 240.519531 337.285156 C 242.160156 337.285156 243.828125 337.066406 245.484375 336.609375 L 278.230469 327.589844 L 278.230469 332.597656 C 278.230469 335.1875 280.328125 337.285156 282.917969 337.285156 L 348.082031 337.285156 C 350.667969 337.285156 352.765625 335.1875 352.765625 332.597656 L 352.765625 312.125 C 352.765625 308.039062 352.296875 304.460938 351.238281 300.515625 Z M 180.515625 304.007812 L 125.707031 298.414062 C 125.613281 298.402344 125.519531 298.394531 125.421875 298.390625 C 121.917969 298.246094 118.824219 296.183594 117.355469 293.011719 L 107.554688 271.75 C 106.730469 269.957031 104.867188 268.878906 102.902344 269.042969 C 100.933594 269.207031 99.285156 270.589844 98.773438 272.5 L 87.339844 315.167969 C 87.234375 315.5625 87.179688 315.972656 87.179688 316.382812 L 87.179688 327.910156 L 31.390625 327.910156 L 31.390625 312.125 C 31.390625 308.851562 31.753906 306.101562 32.601562 302.941406 L 53.109375 226.402344 C 55.035156 219.207031 59.679688 213.179688 66.183594 209.425781 C 72.6875 205.667969 80.230469 204.664062 87.425781 206.589844 C 95.675781 208.800781 102.039062 215.296875 107.445312 227.023438 L 130.917969 277.960938 C 131.613281 279.46875 133.050781 280.496094 134.699219 280.664062 L 182.421875 285.535156 C 187.515625 286.058594 191.230469 290.628906 190.707031 295.722656 C 190.183594 300.8125 185.601562 304.535156 180.515625 304.007812 Z M 343.394531 327.910156 L 287.605469 327.910156 L 287.605469 325.011719 L 298.472656 322.015625 C 305.285156 320.519531 310.652344 315.425781 312.496094 308.683594 L 322.230469 272.796875 C 322.910156 270.296875 321.433594 267.722656 318.933594 267.046875 C 316.4375 266.367188 313.863281 267.84375 313.183594 270.34375 L 303.453125 306.21875 C 302.527344 309.601562 299.820312 312.152344 296.386719 312.878906 L 296.25 312.90625 L 242.992188 327.570312 C 238.058594 328.933594 232.929688 326.03125 231.566406 321.097656 C 230.203125 316.160156 233.109375 311.035156 238.039062 309.671875 L 286.871094 296.226562 L 302.386719 239.019531 C 303.066406 236.523438 301.589844 233.949219 299.089844 233.269531 C 296.59375 232.59375 294.019531 234.070312 293.339844 236.566406 L 279.78125 286.5625 L 276.015625 272.515625 C 276.015625 272.503906 276.011719 272.496094 276.007812 272.484375 L 274.121094 265.433594 C 273.449219 262.933594 270.878906 261.449219 268.378906 262.117188 C 265.878906 262.789062 264.394531 265.359375 265.066406 267.859375 L 266.519531 273.285156 L 257.433594 293 C 257.109375 293.703125 256.695312 294.351562 256.21875 294.945312 L 240.414062 299.296875 L 197.882812 303.636719 C 199.019531 301.542969 199.773438 299.195312 200.03125 296.679688 C 200.457031 292.554688 199.519531 288.496094 197.378906 285.019531 L 240.085938 280.660156 C 241.734375 280.492188 243.171875 279.464844 243.867188 277.960938 L 264.816406 232.5 C 270.179688 220.84375 275.246094 209.835938 287.359375 206.589844 C 294.554688 204.660156 302.097656 205.667969 308.601562 209.421875 C 315.105469 213.175781 319.75 219.207031 321.675781 226.398438 L 342.183594 302.9375 C 343.03125 306.101562 343.394531 308.847656 343.394531 312.121094 Z M 268.40625 291.589844 L 270.3125 287.449219 L 271.214844 290.816406 Z M 65.789062 158.394531 C 65.789062 177.441406 81.289062 192.941406 100.339844 192.941406 C 119.390625 192.941406 134.886719 177.441406 134.886719 158.394531 C 134.886719 139.34375 119.390625 123.84375 100.339844 123.84375 C 81.289062 123.84375 65.789062 139.34375 65.789062 158.394531 Z M 125.511719 158.394531 C 125.511719 172.273438 114.21875 183.566406 100.339844 183.566406 C 86.457031 183.566406 75.164062 172.273438 75.164062 158.394531 C 75.164062 144.511719 86.457031 133.21875 100.339844 133.21875 C 114.21875 133.21875 125.511719 144.511719 125.511719 158.394531 Z M 239.898438 158.390625 C 239.898438 177.441406 255.394531 192.941406 274.445312 192.941406 C 293.496094 192.941406 308.996094 177.441406 308.996094 158.390625 C 308.996094 139.34375 293.496094 123.84375 274.445312 123.84375 C 255.394531 123.84375 239.898438 139.34375 239.898438 158.390625 Z M 299.621094 158.390625 C 299.621094 172.273438 288.328125 183.566406 274.445312 183.566406 C 260.566406 183.566406 249.269531 172.273438 249.269531 158.390625 C 249.269531 144.511719 260.5625 133.21875 274.445312 133.21875 C 288.328125 133.21875 299.621094 144.511719 299.621094 158.390625 Z M 299.621094 158.390625 " fill-opacity="1" fill-rule="nonzero"/></g></svg>