<svg xmlns="http://www.w3.org/2000/svg" xmlns:xlink="http://www.w3.org/1999/xlink" width="500" zoomAndPan="magnify" viewBox="0 0 375 374.999991" height="500" preserveAspectRatio="xMidYMid meet" version="1.0"><defs><clipPath id="b76eca0793"><path d="M 0 8.117188 L 375 8.117188 L 375 346 L 0 346 Z M 0 8.117188 " clip-rule="nonzero"/></clipPath></defs><g clip-path="url(#b76eca0793)"><path fill="#000000" d="M 368.484375 8.117188 L 6.515625 8.117188 C 6.121094 8.117188 5.730469 8.15625 5.339844 8.230469 C 4.953125 8.308594 4.574219 8.421875 4.207031 8.574219 C 3.84375 8.726562 3.496094 8.914062 3.164062 9.132812 C 2.835938 9.351562 2.53125 9.601562 2.25 9.882812 C 1.972656 10.160156 1.722656 10.464844 1.5 10.796875 C 1.28125 11.125 1.09375 11.472656 0.945312 11.839844 C 0.792969 12.203125 0.679688 12.582031 0.601562 12.96875 C 0.523438 13.355469 0.484375 13.75 0.484375 14.144531 L 0.484375 255.320312 C 0.484375 255.71875 0.523438 256.109375 0.601562 256.5 C 0.679688 256.886719 0.792969 257.261719 0.945312 257.628906 C 1.09375 257.996094 1.28125 258.34375 1.5 258.671875 C 1.722656 259 1.972656 259.304688 2.25 259.585938 C 2.53125 259.863281 2.835938 260.113281 3.164062 260.335938 C 3.496094 260.554688 3.84375 260.742188 4.207031 260.890625 C 4.574219 261.042969 4.953125 261.15625 5.339844 261.234375 C 5.730469 261.3125 6.121094 261.351562 6.515625 261.351562 L 143.28125 261.351562 L 121.140625 338.105469 C 120.964844 338.726562 120.894531 339.355469 120.921875 340 C 120.949219 340.644531 121.078125 341.265625 121.304688 341.867188 C 121.535156 342.46875 121.851562 343.023438 122.253906 343.523438 C 122.660156 344.023438 123.132812 344.449219 123.671875 344.796875 C 124.222656 345.152344 124.816406 345.410156 125.453125 345.570312 C 126.085938 345.730469 126.730469 345.785156 127.382812 345.738281 C 128.035156 345.6875 128.664062 345.535156 129.269531 345.285156 C 129.871094 345.03125 130.421875 344.6875 130.914062 344.253906 L 225.988281 261.351562 L 368.484375 261.351562 C 368.878906 261.351562 369.269531 261.3125 369.660156 261.234375 C 370.046875 261.15625 370.425781 261.042969 370.792969 260.890625 C 371.15625 260.742188 371.503906 260.554688 371.835938 260.335938 C 372.164062 260.113281 372.46875 259.863281 372.75 259.585938 C 373.027344 259.304688 373.277344 259 373.5 258.671875 C 373.71875 258.34375 373.90625 257.996094 374.054688 257.628906 C 374.207031 257.261719 374.320312 256.886719 374.398438 256.5 C 374.476562 256.109375 374.515625 255.71875 374.515625 255.320312 L 374.515625 14.144531 C 374.515625 13.75 374.476562 13.355469 374.398438 12.96875 C 374.320312 12.582031 374.207031 12.203125 374.054688 11.839844 C 373.90625 11.472656 373.71875 11.125 373.5 10.796875 C 373.277344 10.464844 373.027344 10.160156 372.75 9.882812 C 372.46875 9.601562 372.164062 9.351562 371.835938 9.132812 C 371.503906 8.914062 371.15625 8.726562 370.792969 8.574219 C 370.425781 8.421875 370.046875 8.308594 369.660156 8.230469 C 369.269531 8.15625 368.878906 8.117188 368.484375 8.117188 Z M 362.449219 249.292969 L 223.695312 249.292969 C 222.179688 249.292969 220.851562 249.796875 219.714844 250.800781 L 138.574219 321.644531 L 157.335938 256.949219 C 157.59375 256.046875 157.636719 255.136719 157.464844 254.214844 C 157.296875 253.292969 156.929688 252.457031 156.371094 251.703125 C 155.777344 250.910156 155.03125 250.300781 154.136719 249.875 C 153.238281 249.445312 152.296875 249.253906 151.304688 249.292969 L 12.550781 249.292969 L 12.550781 20.175781 L 362.449219 20.175781 Z M 362.449219 249.292969 " fill-opacity="1" fill-rule="nonzero"/></g><path fill="#000000" d="M 36.679688 74.441406 L 121.140625 74.441406 C 121.535156 74.441406 121.929688 74.402344 122.316406 74.324219 C 122.707031 74.246094 123.082031 74.132812 123.449219 73.980469 C 123.8125 73.828125 124.160156 73.644531 124.492188 73.421875 C 124.820312 73.203125 125.125 72.953125 125.40625 72.671875 C 125.6875 72.394531 125.9375 72.089844 126.15625 71.761719 C 126.375 71.429688 126.5625 71.082031 126.714844 70.71875 C 126.863281 70.351562 126.980469 69.976562 127.054688 69.585938 C 127.132812 69.199219 127.171875 68.804688 127.171875 68.410156 C 127.171875 68.015625 127.132812 67.621094 127.054688 67.234375 C 126.980469 66.84375 126.863281 66.46875 126.714844 66.101562 C 126.5625 65.738281 126.375 65.390625 126.15625 65.058594 C 125.9375 64.730469 125.6875 64.425781 125.40625 64.148438 C 125.125 63.867188 124.820312 63.617188 124.492188 63.398438 C 124.160156 63.175781 123.8125 62.992188 123.449219 62.839844 C 123.082031 62.6875 122.707031 62.574219 122.316406 62.496094 C 121.929688 62.417969 121.535156 62.378906 121.140625 62.378906 L 36.679688 62.378906 C 36.285156 62.378906 35.894531 62.417969 35.503906 62.496094 C 35.117188 62.574219 34.738281 62.6875 34.371094 62.839844 C 34.007812 62.992188 33.660156 63.175781 33.328125 63.398438 C 33 63.617188 32.695312 63.867188 32.414062 64.148438 C 32.136719 64.425781 31.886719 64.730469 31.664062 65.058594 C 31.445312 65.390625 31.257812 65.738281 31.109375 66.101562 C 30.957031 66.46875 30.839844 66.84375 30.765625 67.234375 C 30.6875 67.621094 30.648438 68.015625 30.648438 68.410156 C 30.648438 68.804688 30.6875 69.199219 30.765625 69.585938 C 30.839844 69.976562 30.957031 70.351562 31.109375 70.71875 C 31.257812 71.082031 31.445312 71.429688 31.664062 71.761719 C 31.886719 72.089844 32.136719 72.394531 32.414062 72.671875 C 32.695312 72.953125 33 73.203125 33.328125 73.421875 C 33.660156 73.644531 34.007812 73.828125 34.371094 73.980469 C 34.738281 74.132812 35.117188 74.246094 35.503906 74.324219 C 35.894531 74.402344 36.285156 74.441406 36.679688 74.441406 Z M 36.679688 74.441406 " fill-opacity="1" fill-rule="nonzero"/><path fill="#000000" d="M 36.679688 116.644531 L 145.269531 116.644531 C 145.667969 116.644531 146.058594 116.605469 146.449219 116.53125 C 146.835938 116.453125 147.214844 116.335938 147.578125 116.1875 C 147.945312 116.035156 148.292969 115.847656 148.621094 115.628906 C 148.953125 115.410156 149.257812 115.160156 149.535156 114.878906 C 149.816406 114.597656 150.066406 114.292969 150.285156 113.964844 C 150.507812 113.636719 150.691406 113.289062 150.84375 112.921875 C 150.996094 112.558594 151.109375 112.179688 151.1875 111.792969 C 151.265625 111.402344 151.304688 111.011719 151.304688 110.617188 C 151.304688 110.21875 151.265625 109.828125 151.1875 109.441406 C 151.109375 109.050781 150.996094 108.675781 150.84375 108.308594 C 150.691406 107.941406 150.507812 107.59375 150.285156 107.265625 C 150.066406 106.9375 149.816406 106.632812 149.535156 106.351562 C 149.257812 106.074219 148.953125 105.824219 148.621094 105.601562 C 148.292969 105.382812 147.945312 105.195312 147.578125 105.046875 C 147.214844 104.894531 146.835938 104.78125 146.449219 104.703125 C 146.058594 104.625 145.667969 104.585938 145.269531 104.585938 L 36.679688 104.585938 C 36.285156 104.585938 35.894531 104.625 35.503906 104.703125 C 35.117188 104.78125 34.738281 104.894531 34.371094 105.046875 C 34.007812 105.195312 33.660156 105.382812 33.328125 105.601562 C 33 105.824219 32.695312 106.074219 32.414062 106.351562 C 32.136719 106.632812 31.886719 106.9375 31.664062 107.265625 C 31.445312 107.59375 31.257812 107.941406 31.109375 108.308594 C 30.957031 108.675781 30.839844 109.050781 30.765625 109.441406 C 30.6875 109.828125 30.648438 110.21875 30.648438 110.617188 C 30.648438 111.011719 30.6875 111.402344 30.765625 111.792969 C 30.839844 112.179688 30.957031 112.558594 31.109375 112.921875 C 31.257812 113.289062 31.445312 113.636719 31.664062 113.964844 C 31.886719 114.292969 32.136719 114.597656 32.414062 114.878906 C 32.695312 115.160156 33 115.410156 33.328125 115.628906 C 33.660156 115.847656 34.007812 116.035156 34.371094 116.1875 C 34.738281 116.335938 35.117188 116.453125 35.503906 116.53125 C 35.894531 116.605469 36.285156 116.644531 36.679688 116.644531 Z M 36.679688 116.644531 " fill-opacity="1" fill-rule="nonzero"/><path fill="#000000" d="M 36.679688 158.851562 L 187.5 158.851562 C 187.894531 158.851562 188.289062 158.8125 188.675781 158.734375 C 189.066406 158.65625 189.441406 158.542969 189.808594 158.390625 C 190.175781 158.242188 190.523438 158.054688 190.851562 157.835938 C 191.179688 157.613281 191.484375 157.363281 191.765625 157.085938 C 192.046875 156.804688 192.296875 156.5 192.515625 156.171875 C 192.734375 155.84375 192.921875 155.496094 193.074219 155.128906 C 193.226562 154.761719 193.339844 154.386719 193.417969 154 C 193.492188 153.609375 193.53125 153.21875 193.53125 152.820312 C 193.53125 152.425781 193.492188 152.035156 193.417969 151.644531 C 193.339844 151.257812 193.226562 150.878906 193.074219 150.515625 C 192.921875 150.148438 192.734375 149.800781 192.515625 149.472656 C 192.296875 149.144531 192.046875 148.839844 191.765625 148.558594 C 191.484375 148.277344 191.179688 148.027344 190.851562 147.808594 C 190.523438 147.589844 190.175781 147.402344 189.808594 147.25 C 189.441406 147.101562 189.066406 146.984375 188.675781 146.910156 C 188.289062 146.832031 187.894531 146.792969 187.5 146.792969 L 36.679688 146.792969 C 36.285156 146.792969 35.894531 146.832031 35.503906 146.910156 C 35.117188 146.984375 34.738281 147.101562 34.371094 147.25 C 34.007812 147.402344 33.660156 147.589844 33.328125 147.808594 C 33 148.027344 32.695312 148.277344 32.414062 148.558594 C 32.136719 148.839844 31.886719 149.144531 31.664062 149.472656 C 31.445312 149.800781 31.257812 150.148438 31.109375 150.515625 C 30.957031 150.878906 30.839844 151.257812 30.765625 151.644531 C 30.6875 152.035156 30.648438 152.425781 30.648438 152.820312 C 30.648438 153.21875 30.6875 153.609375 30.765625 154 C 30.839844 154.386719 30.957031 154.761719 31.109375 155.128906 C 31.257812 155.496094 31.445312 155.84375 31.664062 156.171875 C 31.886719 156.5 32.136719 156.804688 32.414062 157.085938 C 32.695312 157.363281 33 157.613281 33.328125 157.835938 C 33.660156 158.054688 34.007812 158.242188 34.371094 158.390625 C 34.738281 158.542969 35.117188 158.65625 35.503906 158.734375 C 35.894531 158.8125 36.285156 158.851562 36.679688 158.851562 Z M 36.679688 158.851562 " fill-opacity="1" fill-rule="nonzero"/><path fill="#000000" d="M 36.679688 201.058594 L 241.792969 201.058594 C 242.191406 201.058594 242.582031 201.019531 242.972656 200.941406 C 243.359375 200.863281 243.738281 200.75 244.101562 200.597656 C 244.46875 200.445312 244.816406 200.261719 245.144531 200.039062 C 245.476562 199.820312 245.78125 199.570312 246.0625 199.292969 C 246.339844 199.011719 246.589844 198.707031 246.8125 198.378906 C 247.03125 198.046875 247.214844 197.699219 247.367188 197.335938 C 247.519531 196.96875 247.632812 196.59375 247.710938 196.203125 C 247.789062 195.816406 247.828125 195.421875 247.828125 195.027344 C 247.828125 194.632812 247.789062 194.238281 247.710938 193.851562 C 247.632812 193.464844 247.519531 193.085938 247.367188 192.71875 C 247.214844 192.355469 247.03125 192.007812 246.8125 191.679688 C 246.589844 191.347656 246.339844 191.042969 246.0625 190.765625 C 245.78125 190.484375 245.476562 190.234375 245.144531 190.015625 C 244.816406 189.792969 244.46875 189.609375 244.101562 189.457031 C 243.738281 189.304688 243.359375 189.191406 242.972656 189.113281 C 242.582031 189.035156 242.191406 189 241.792969 189 L 36.679688 189 C 36.285156 189 35.894531 189.035156 35.503906 189.113281 C 35.117188 189.191406 34.738281 189.304688 34.371094 189.457031 C 34.007812 189.609375 33.660156 189.792969 33.328125 190.015625 C 33 190.234375 32.695312 190.484375 32.414062 190.765625 C 32.136719 191.042969 31.886719 191.347656 31.664062 191.679688 C 31.445312 192.007812 31.257812 192.355469 31.109375 192.71875 C 30.957031 193.085938 30.839844 193.464844 30.765625 193.851562 C 30.6875 194.238281 30.648438 194.632812 30.648438 195.027344 C 30.648438 195.421875 30.6875 195.816406 30.765625 196.203125 C 30.839844 196.59375 30.957031 196.96875 31.109375 197.335938 C 31.257812 197.699219 31.445312 198.046875 31.664062 198.378906 C 31.886719 198.707031 32.136719 199.011719 32.414062 199.292969 C 32.695312 199.570312 33 199.820312 33.328125 200.039062 C 33.660156 200.261719 34.007812 200.445312 34.371094 200.597656 C 34.738281 200.75 35.117188 200.863281 35.503906 200.941406 C 35.894531 201.019531 36.285156 201.058594 36.679688 201.058594 Z M 36.679688 201.058594 " fill-opacity="1" fill-rule="nonzero"/><path fill="#000000" d="M 212.835938 175.734375 C 213.796875 175.726562 214.699219 175.507812 215.550781 175.070312 L 249.636719 158.066406 C 250.222656 157.769531 250.746094 157.390625 251.207031 156.921875 L 336.570312 71.664062 L 345.074219 63.105469 C 345.46875 62.679688 345.84375 62.238281 346.195312 61.78125 C 346.550781 61.320312 346.878906 60.84375 347.1875 60.351562 C 347.492188 59.863281 347.777344 59.355469 348.035156 58.839844 C 348.292969 58.320312 348.523438 57.792969 348.734375 57.25 C 348.941406 56.710938 349.121094 56.160156 349.277344 55.601562 C 349.429688 55.042969 349.558594 54.480469 349.660156 53.910156 C 349.757812 53.339844 349.832031 52.765625 349.878906 52.1875 C 349.921875 51.609375 349.941406 51.03125 349.929688 50.453125 C 349.921875 49.875 349.882812 49.296875 349.816406 48.722656 C 349.75 48.148438 349.65625 47.574219 349.535156 47.007812 C 349.417969 46.441406 349.269531 45.882812 349.09375 45.332031 C 348.921875 44.78125 348.71875 44.238281 348.492188 43.703125 C 348.265625 43.171875 348.015625 42.648438 347.738281 42.140625 C 347.460938 41.632812 347.164062 41.136719 346.839844 40.65625 C 346.515625 40.175781 346.167969 39.714844 345.800781 39.265625 C 345.429688 38.820312 345.042969 38.390625 344.632812 37.984375 C 344.222656 37.574219 343.792969 37.183594 343.347656 36.816406 C 342.898438 36.449219 342.4375 36.101562 341.957031 35.777344 C 341.476562 35.453125 340.980469 35.152344 340.472656 34.878906 C 339.960938 34.601562 339.441406 34.347656 338.90625 34.125 C 338.375 33.898438 337.832031 33.695312 337.277344 33.523438 C 336.726562 33.347656 336.167969 33.199219 335.601562 33.082031 C 335.035156 32.960938 334.460938 32.867188 333.886719 32.800781 C 333.3125 32.734375 332.734375 32.699219 332.152344 32.6875 C 331.574219 32.675781 330.996094 32.695312 330.417969 32.738281 C 329.839844 32.785156 329.265625 32.859375 328.695312 32.957031 C 328.125 33.058594 327.5625 33.1875 327.003906 33.339844 C 326.445312 33.496094 325.894531 33.675781 325.355469 33.882812 C 324.8125 34.089844 324.28125 34.324219 323.765625 34.582031 C 323.246094 34.839844 322.742188 35.125 322.25 35.429688 C 321.757812 35.738281 321.28125 36.066406 320.820312 36.417969 C 320.363281 36.769531 319.921875 37.144531 319.496094 37.539062 L 225.628906 131.355469 C 225.175781 131.808594 224.796875 132.3125 224.480469 132.863281 L 207.46875 166.992188 C 207.179688 167.554688 206.984375 168.152344 206.882812 168.78125 C 206.78125 169.40625 206.777344 170.035156 206.875 170.664062 C 206.972656 171.292969 207.167969 171.890625 207.453125 172.457031 C 207.738281 173.023438 208.105469 173.535156 208.554688 173.984375 C 209.125 174.550781 209.78125 174.984375 210.523438 175.285156 C 211.265625 175.589844 212.035156 175.738281 212.835938 175.734375 Z M 328.003906 46.039062 C 328.285156 45.757812 328.589844 45.507812 328.917969 45.285156 C 329.25 45.0625 329.597656 44.875 329.964844 44.722656 C 330.332031 44.566406 330.710938 44.453125 331.101562 44.375 C 331.492188 44.296875 331.886719 44.257812 332.285156 44.257812 C 332.683594 44.257812 333.078125 44.296875 333.46875 44.375 C 333.859375 44.453125 334.238281 44.566406 334.605469 44.722656 C 334.972656 44.875 335.324219 45.0625 335.652344 45.285156 C 335.984375 45.507812 336.289062 45.757812 336.570312 46.039062 C 336.851562 46.320312 337.105469 46.625 337.328125 46.957031 C 337.550781 47.285156 337.738281 47.636719 337.890625 48.003906 C 338.042969 48.371094 338.160156 48.75 338.238281 49.140625 C 338.316406 49.53125 338.355469 49.925781 338.355469 50.320312 C 338.355469 50.71875 338.316406 51.113281 338.238281 51.503906 C 338.160156 51.894531 338.042969 52.273438 337.890625 52.640625 C 337.738281 53.007812 337.550781 53.355469 337.328125 53.6875 C 337.105469 54.015625 336.851562 54.324219 336.570312 54.601562 L 332.285156 58.824219 L 323.78125 50.320312 Z M 315.214844 58.824219 L 323.78125 67.386719 L 246.984375 144.140625 L 238.417969 135.578125 Z M 231.539062 145.765625 L 236.789062 151.011719 L 226.351562 156.199219 Z M 231.539062 145.765625 " fill-opacity="1" fill-rule="nonzero"/></svg>