<svg xmlns="http://www.w3.org/2000/svg" xmlns:xlink="http://www.w3.org/1999/xlink" width="500" zoomAndPan="magnify" viewBox="0 0 375 374.999991" height="500" preserveAspectRatio="xMidYMid meet" version="1.0"><defs><clipPath id="09eab9a3b9"><path d="M 2.75 0 L 372 0 L 372 361.5 L 2.75 361.5 Z M 2.75 0 " clip-rule="nonzero"/></clipPath></defs><g clip-path="url(#09eab9a3b9)"><path fill="#000000" d="M 362.398438 159.886719 C 361.785156 166.273438 356.503906 169.878906 350.683594 170.695312 C 352.335938 167.019531 352.851562 162.9375 351.886719 158.785156 C 349.4375 148.296875 330.234375 140.289062 325.511719 153.847656 C 322.667969 162.035156 326.714844 170.507812 334.3125 175.296875 C 332.042969 176.410156 329.453125 177.167969 326.691406 177.511719 C 326.230469 177.566406 325.824219 177.664062 325.457031 177.796875 C 325.457031 177.796875 325.457031 177.789062 325.449219 177.789062 C 317.566406 164.925781 306.136719 153.140625 291.519531 143.023438 C 277.933594 133.632812 262.308594 126.183594 245.351562 120.898438 C 255.890625 108.117188 262.222656 91.761719 262.222656 73.957031 C 262.222656 33.179688 228.996094 0 188.15625 0 C 147.3125 0 114.085938 33.179688 114.085938 73.957031 C 114.085938 83.023438 115.722656 91.714844 118.734375 99.746094 C 107.980469 90.8125 91.417969 83.398438 65.984375 80.980469 C 63.933594 80.789062 61.910156 81.589844 60.570312 83.15625 C 59.230469 84.707031 58.714844 86.816406 59.207031 88.816406 L 72.457031 142.859375 C 55.828125 154.308594 43.003906 168.273438 35.035156 183.601562 L 23.480469 183.601562 C 12.078125 183.601562 2.804688 191.871094 2.804688 202.035156 L 2.804688 250.074219 C 2.804688 260.230469 12.078125 268.5 23.480469 268.5 L 40.265625 268.5 C 50.429688 283.765625 65.546875 297.238281 84.328125 307.785156 L 84.328125 343.074219 C 84.328125 353.238281 93.605469 361.5 105.007812 361.5 L 132.246094 361.5 C 143.648438 361.5 152.921875 353.238281 152.921875 343.074219 L 152.921875 329.855469 C 162.429688 331.109375 172.132812 331.734375 181.84375 331.734375 C 194.847656 331.734375 207.710938 330.621094 220.183594 328.414062 L 220.183594 343.066406 C 220.183594 353.230469 229.457031 361.492188 240.859375 361.492188 L 268.089844 361.492188 C 279.492188 361.492188 288.769531 353.230469 288.769531 343.066406 L 288.769531 304.296875 C 288.769531 303.570312 288.722656 302.855469 288.628906 302.144531 C 320.1875 281.390625 338.164062 252.261719 338.164062 221.621094 C 338.164062 209.011719 335.21875 196.753906 329.53125 185.226562 C 335.246094 184.457031 340.339844 182.175781 344.257812 178.933594 C 344.320312 178.941406 344.375 178.957031 344.4375 178.964844 C 358.859375 180.976562 370.777344 171.730469 371.929688 159.886719 C 372.445312 154.722656 362.898438 154.746094 362.398438 159.886719 Z M 188.15625 12.710938 C 221.984375 12.710938 249.503906 40.1875 249.503906 73.964844 C 249.503906 90.804688 242.667969 106.074219 231.617188 117.160156 C 227.648438 121.144531 223.128906 124.589844 218.183594 127.371094 C 209.300781 132.371094 199.058594 135.21875 188.15625 135.21875 C 176.191406 135.21875 165.011719 131.785156 155.574219 125.84375 C 150.769531 122.828125 146.425781 119.175781 142.632812 114.984375 C 132.804688 104.121094 126.800781 89.730469 126.800781 73.957031 C 126.808594 40.1875 154.328125 12.710938 188.15625 12.710938 Z M 277.832031 293.960938 C 274.960938 295.710938 273.964844 299.402344 275.546875 302.371094 C 275.890625 303.011719 276.0625 303.664062 276.0625 304.304688 L 276.0625 343.074219 C 276.0625 346.125 272.339844 348.796875 268.097656 348.796875 L 240.867188 348.796875 C 236.625 348.796875 232.910156 346.125 232.910156 343.074219 L 232.910156 320.703125 C 232.910156 318.789062 232.039062 316.964844 230.546875 315.757812 C 229.410156 314.839844 227.988281 314.351562 226.554688 314.351562 C 226.101562 314.351562 225.65625 314.398438 225.214844 314.488281 C 211.234375 317.503906 196.648438 319.039062 181.851562 319.039062 C 170.308594 319.039062 158.789062 318.089844 147.617188 316.226562 C 145.769531 315.914062 143.890625 316.4375 142.460938 317.644531 C 141.035156 318.84375 140.207031 320.621094 140.207031 322.488281 L 140.207031 343.066406 C 140.207031 346.117188 136.488281 348.789062 132.253906 348.789062 L 105.015625 348.789062 C 100.773438 348.789062 97.058594 346.117188 97.058594 343.066406 L 97.058594 304.488281 C 97.066406 304.402344 97.066406 304.3125 97.074219 304.21875 C 97.152344 301.796875 95.84375 299.542969 93.703125 298.40625 C 74.082031 288.019531 58.683594 274.324219 49.175781 258.835938 C 48.019531 256.949219 45.96875 255.796875 43.746094 255.796875 L 23.480469 255.796875 C 19.238281 255.796875 15.519531 253.125 15.519531 250.074219 L 15.519531 202.035156 C 15.519531 198.980469 19.238281 196.3125 23.480469 196.3125 L 38.996094 196.3125 C 41.476562 196.3125 43.730469 194.871094 44.769531 192.628906 C 52.0625 176.871094 65.328125 162.480469 83.136719 151.007812 C 85.414062 149.535156 86.503906 146.785156 85.867188 144.160156 L 73.753906 94.765625 C 106.191406 99.960938 118.515625 114.746094 123.078125 126.746094 C 124.234375 129.785156 127.488281 131.457031 130.628906 130.640625 C 133.21875 129.960938 135.832031 129.339844 138.46875 128.769531 C 143.789062 133.585938 149.800781 137.640625 156.355469 140.757812 L 156.363281 140.757812 C 131.355469 143.902344 119.007812 149.910156 118.320312 150.25 C 115.964844 151.425781 115.015625 154.277344 116.183594 156.628906 C 117.355469 158.980469 120.21875 159.941406 122.574219 158.785156 C 122.785156 158.6875 144.21875 148.40625 188.164062 148.40625 C 232.109375 148.40625 253.542969 158.6875 253.738281 158.777344 C 254.425781 159.121094 255.148438 159.285156 255.867188 159.285156 C 257.621094 159.285156 259.308594 158.320312 260.140625 156.644531 C 261.320312 154.292969 260.359375 151.425781 258.003906 150.25 C 257.316406 149.910156 244.976562 143.902344 219.964844 140.757812 C 225.398438 138.164062 230.46875 134.929688 235.082031 131.15625 C 287.996094 145.523438 325.464844 180.664062 325.464844 221.628906 C 325.464844 249.070312 308.105469 275.433594 277.832031 293.960938 Z M 342.75 164.378906 C 342.523438 166.226562 341.925781 167.898438 341.035156 169.394531 C 337.285156 167.679688 334.46875 164.472656 334.1875 159.761719 C 334 156.574219 334.96875 153.226562 339.265625 155.75 C 342.472656 157.632812 343.132812 161.28125 342.75 164.378906 Z M 342.75 164.378906 " fill-opacity="1" fill-rule="nonzero"/></g><path fill="#000000" d="M 87.925781 197.25 C 88.039062 197.933594 88.082031 198.625 88.054688 199.320312 C 88.03125 200.015625 87.9375 200.699219 87.777344 201.375 C 87.621094 202.054688 87.394531 202.707031 87.105469 203.339844 C 86.816406 203.972656 86.46875 204.570312 86.0625 205.132812 C 85.65625 205.695312 85.195312 206.214844 84.6875 206.6875 C 84.179688 207.164062 83.628906 207.582031 83.035156 207.949219 C 82.441406 208.3125 81.820312 208.617188 81.167969 208.859375 C 80.515625 209.101562 79.847656 209.28125 79.160156 209.390625 C 78.472656 209.503906 77.78125 209.546875 77.085938 209.519531 C 76.390625 209.496094 75.703125 209.40625 75.027344 209.246094 C 74.347656 209.085938 73.695312 208.859375 73.0625 208.574219 C 72.425781 208.285156 71.828125 207.9375 71.265625 207.53125 C 70.699219 207.125 70.179688 206.664062 69.707031 206.15625 C 69.230469 205.648438 68.8125 205.097656 68.445312 204.507812 C 68.078125 203.917969 67.773438 203.296875 67.53125 202.644531 C 67.289062 201.992188 67.109375 201.324219 67 200.636719 C 66.886719 199.953125 66.84375 199.261719 66.871094 198.566406 C 66.894531 197.875 66.988281 197.1875 67.144531 196.511719 C 67.304688 195.835938 67.53125 195.179688 67.820312 194.546875 C 68.109375 193.917969 68.457031 193.316406 68.863281 192.753906 C 69.269531 192.191406 69.730469 191.671875 70.238281 191.199219 C 70.746094 190.726562 71.296875 190.304688 71.890625 189.941406 C 72.484375 189.574219 73.105469 189.269531 73.757812 189.027344 C 74.410156 188.785156 75.078125 188.609375 75.765625 188.496094 C 76.453125 188.386719 77.144531 188.339844 77.839844 188.367188 C 78.535156 188.390625 79.222656 188.484375 79.898438 188.644531 C 80.578125 188.800781 81.230469 189.027344 81.863281 189.316406 C 82.496094 189.605469 83.097656 189.953125 83.660156 190.359375 C 84.226562 190.765625 84.746094 191.222656 85.21875 191.730469 C 85.695312 192.238281 86.113281 192.789062 86.480469 193.378906 C 86.847656 193.972656 87.152344 194.59375 87.394531 195.242188 C 87.636719 195.894531 87.816406 196.5625 87.925781 197.25 Z M 87.925781 197.25 " fill-opacity="1" fill-rule="nonzero"/><path fill="#000000" d="M 178.078125 94.730469 C 176.582031 92.75 175.550781 90.40625 175.011719 87.679688 L 161.652344 89.113281 C 162.679688 95.828125 165.027344 101.023438 168.71875 104.707031 C 172.398438 108.382812 177.195312 110.585938 183.101562 111.292969 L 183.101562 120.601562 L 190.519531 120.601562 L 190.519531 111.046875 C 197.171875 110.09375 202.375 107.5 206.109375 103.28125 C 209.847656 99.050781 211.71875 93.855469 211.71875 87.6875 C 211.71875 82.167969 210.238281 77.648438 207.265625 74.121094 C 204.292969 70.59375 198.714844 67.71875 190.527344 65.507812 L 190.527344 45.507812 C 193.832031 46.941406 195.886719 49.664062 196.664062 53.683594 L 209.613281 51.996094 C 208.722656 46.886719 206.679688 42.804688 203.472656 39.75 C 200.269531 36.699219 195.949219 34.851562 190.527344 34.207031 L 190.527344 29.144531 L 183.109375 29.144531 L 183.109375 34.207031 C 177.234375 34.78125 172.539062 36.980469 169.007812 40.773438 C 165.472656 44.570312 163.710938 49.269531 163.710938 54.851562 C 163.710938 60.375 165.269531 65.0625 168.398438 68.933594 C 171.519531 72.796875 176.425781 75.6875 183.117188 77.59375 L 183.117188 99.011719 C 181.253906 98.140625 179.582031 96.707031 178.078125 94.730469 Z M 190.519531 79.804688 C 193.59375 80.695312 195.800781 81.964844 197.148438 83.613281 C 198.492188 85.265625 199.167969 87.234375 199.167969 89.519531 C 199.167969 92.074219 198.367188 94.292969 196.765625 96.183594 C 195.160156 98.078125 193.078125 99.261719 190.519531 99.738281 Z M 178.132812 59.285156 C 177.039062 57.734375 176.496094 56.058594 176.496094 54.246094 C 176.496094 52.265625 177.09375 50.460938 178.289062 48.824219 C 179.480469 47.1875 181.089844 46.027344 183.101562 45.351562 L 183.101562 63.03125 C 180.878906 62.089844 179.222656 60.835938 178.132812 59.285156 Z M 178.132812 59.285156 " fill-opacity="1" fill-rule="nonzero"/></svg>