<svg xmlns="http://www.w3.org/2000/svg" xmlns:xlink="http://www.w3.org/1999/xlink" width="500" zoomAndPan="magnify" viewBox="0 0 375 374.999991" height="500" preserveAspectRatio="xMidYMid meet" version="1.0"><defs><clipPath id="d2b00e369e"><path d="M 6.734375 1 L 368.234375 1 L 368.234375 356.25 L 6.734375 356.25 Z M 6.734375 1 " clip-rule="nonzero"/></clipPath></defs><g clip-path="url(#d2b00e369e)"><path fill="#000000" d="M 175.289062 272.628906 C 175.289062 272.304688 175.320312 271.984375 175.386719 271.667969 C 175.449219 271.347656 175.542969 271.039062 175.667969 270.742188 C 175.789062 270.441406 175.941406 270.15625 176.121094 269.886719 C 176.304688 269.617188 176.507812 269.367188 176.738281 269.140625 C 176.96875 268.910156 177.214844 268.707031 177.484375 268.523438 C 177.757812 268.34375 178.039062 268.191406 178.339844 268.070312 C 178.640625 267.945312 178.949219 267.851562 179.265625 267.789062 C 179.585938 267.726562 179.90625 267.691406 180.230469 267.691406 L 194.738281 267.691406 C 195.0625 267.691406 195.382812 267.726562 195.699219 267.789062 C 196.019531 267.851562 196.328125 267.945312 196.628906 268.070312 C 196.925781 268.191406 197.210938 268.34375 197.480469 268.523438 C 197.75 268.707031 198 268.910156 198.230469 269.140625 C 198.460938 269.367188 198.664062 269.617188 198.84375 269.886719 C 199.023438 270.15625 199.175781 270.441406 199.300781 270.742188 C 199.425781 271.039062 199.519531 271.347656 199.582031 271.667969 C 199.644531 271.984375 199.679688 272.304688 199.679688 272.628906 C 199.679688 272.953125 199.644531 273.277344 199.582031 273.59375 C 199.519531 273.910156 199.425781 274.21875 199.300781 274.519531 C 199.175781 274.820312 199.023438 275.105469 198.84375 275.375 C 198.664062 275.644531 198.460938 275.890625 198.230469 276.121094 C 198 276.351562 197.75 276.554688 197.480469 276.734375 C 197.210938 276.914062 196.925781 277.066406 196.628906 277.191406 C 196.328125 277.316406 196.019531 277.410156 195.699219 277.472656 C 195.382812 277.535156 195.0625 277.566406 194.738281 277.566406 L 180.230469 277.566406 C 179.90625 277.566406 179.585938 277.535156 179.265625 277.472656 C 178.949219 277.410156 178.640625 277.316406 178.339844 277.191406 C 178.039062 277.066406 177.757812 276.914062 177.484375 276.734375 C 177.214844 276.554688 176.96875 276.351562 176.738281 276.121094 C 176.507812 275.890625 176.304688 275.644531 176.121094 275.375 C 175.941406 275.105469 175.789062 274.820312 175.667969 274.519531 C 175.542969 274.21875 175.449219 273.910156 175.386719 273.59375 C 175.320312 273.277344 175.289062 272.953125 175.289062 272.628906 Z M 368.1875 71.871094 L 368.1875 278.347656 C 368.183594 278.992188 368.152344 279.636719 368.089844 280.28125 C 368.023438 280.921875 367.929688 281.558594 367.800781 282.195312 C 367.675781 282.828125 367.515625 283.453125 367.328125 284.070312 C 367.140625 284.6875 366.921875 285.292969 366.671875 285.890625 C 366.425781 286.488281 366.148438 287.070312 365.84375 287.640625 C 365.539062 288.207031 365.207031 288.761719 364.847656 289.296875 C 364.488281 289.835938 364.101562 290.351562 363.691406 290.851562 C 363.28125 291.351562 362.847656 291.828125 362.390625 292.285156 C 361.933594 292.742188 361.457031 293.175781 360.957031 293.582031 C 360.457031 293.992188 359.9375 294.378906 359.398438 294.734375 C 358.863281 295.09375 358.308594 295.425781 357.738281 295.730469 C 357.167969 296.035156 356.585938 296.308594 355.988281 296.558594 C 355.390625 296.804688 354.785156 297.023438 354.164062 297.210938 C 353.546875 297.398438 352.921875 297.554688 352.289062 297.679688 C 351.652344 297.808594 351.015625 297.902344 350.371094 297.964844 C 349.730469 298.03125 349.085938 298.0625 348.4375 298.0625 L 225.511719 298.0625 L 225.511719 325.171875 L 231.113281 325.171875 C 232.132812 325.171875 233.140625 325.273438 234.140625 325.472656 C 235.140625 325.671875 236.109375 325.964844 237.050781 326.355469 C 237.992188 326.746094 238.886719 327.226562 239.734375 327.789062 C 240.582031 328.355469 241.367188 329 242.089844 329.71875 C 242.808594 330.441406 243.453125 331.222656 244.019531 332.070312 C 244.585938 332.917969 245.0625 333.8125 245.453125 334.753906 C 245.84375 335.691406 246.140625 336.664062 246.339844 337.660156 C 246.539062 338.660156 246.640625 339.667969 246.640625 340.6875 L 246.640625 351.269531 C 246.640625 351.59375 246.609375 351.914062 246.546875 352.230469 C 246.484375 352.546875 246.390625 352.859375 246.265625 353.15625 C 246.140625 353.457031 245.988281 353.742188 245.808594 354.011719 C 245.628906 354.28125 245.421875 354.53125 245.195312 354.757812 C 244.964844 354.988281 244.714844 355.191406 244.445312 355.371094 C 244.175781 355.554688 243.890625 355.703125 243.589844 355.828125 C 243.292969 355.953125 242.980469 356.046875 242.664062 356.109375 C 242.347656 356.171875 242.023438 356.203125 241.699219 356.203125 L 133.273438 356.203125 C 132.949219 356.203125 132.628906 356.171875 132.3125 356.109375 C 131.992188 356.046875 131.683594 355.953125 131.382812 355.828125 C 131.085938 355.703125 130.800781 355.554688 130.53125 355.371094 C 130.261719 355.191406 130.011719 354.988281 129.78125 354.757812 C 129.550781 354.53125 129.347656 354.28125 129.167969 354.011719 C 128.988281 353.742188 128.835938 353.457031 128.710938 353.15625 C 128.585938 352.859375 128.492188 352.546875 128.429688 352.230469 C 128.367188 351.914062 128.335938 351.59375 128.335938 351.269531 L 128.335938 340.6875 C 128.335938 339.667969 128.433594 338.660156 128.636719 337.660156 C 128.835938 336.664062 129.128906 335.691406 129.519531 334.753906 C 129.910156 333.8125 130.390625 332.917969 130.957031 332.070312 C 131.523438 331.222656 132.164062 330.441406 132.886719 329.71875 C 133.609375 329 134.390625 328.355469 135.238281 327.789062 C 136.085938 327.226562 136.980469 326.746094 137.921875 326.355469 C 138.863281 325.964844 139.835938 325.671875 140.835938 325.472656 C 141.835938 325.273438 142.84375 325.171875 143.863281 325.171875 L 149.464844 325.171875 L 149.464844 298.0625 L 26.511719 298.0625 C 25.867188 298.0625 25.222656 298.027344 24.578125 297.964844 C 23.9375 297.902344 23.296875 297.804688 22.664062 297.679688 C 22.03125 297.554688 21.40625 297.394531 20.789062 297.207031 C 20.171875 297.019531 19.5625 296.804688 18.964844 296.554688 C 18.371094 296.308594 17.785156 296.03125 17.214844 295.726562 C 16.648438 295.421875 16.09375 295.089844 15.558594 294.734375 C 15.019531 294.375 14.5 293.988281 14.003906 293.582031 C 13.503906 293.171875 13.023438 292.738281 12.570312 292.28125 C 12.113281 291.824219 11.679688 291.347656 11.269531 290.847656 C 10.859375 290.347656 10.472656 289.832031 10.117188 289.292969 C 9.757812 288.757812 9.425781 288.207031 9.121094 287.636719 C 8.816406 287.066406 8.539062 286.484375 8.292969 285.886719 C 8.042969 285.292969 7.828125 284.683594 7.636719 284.066406 C 7.449219 283.449219 7.292969 282.824219 7.167969 282.191406 C 7.039062 281.558594 6.945312 280.921875 6.882812 280.277344 C 6.816406 279.636719 6.785156 278.992188 6.785156 278.347656 L 6.785156 71.871094 C 6.785156 71.226562 6.816406 70.582031 6.882812 69.9375 C 6.945312 69.296875 7.039062 68.660156 7.167969 68.027344 C 7.292969 67.394531 7.449219 66.769531 7.640625 66.152344 C 7.828125 65.535156 8.042969 64.925781 8.292969 64.332031 C 8.539062 63.734375 8.816406 63.152344 9.121094 62.582031 C 9.425781 62.011719 9.757812 61.460938 10.117188 60.925781 C 10.476562 60.386719 10.859375 59.871094 11.269531 59.371094 C 11.679688 58.871094 12.113281 58.394531 12.570312 57.9375 C 13.027344 57.480469 13.503906 57.050781 14.003906 56.640625 C 14.503906 56.230469 15.019531 55.847656 15.558594 55.488281 C 16.09375 55.128906 16.648438 54.796875 17.21875 54.492188 C 17.785156 54.1875 18.371094 53.910156 18.964844 53.664062 C 19.5625 53.417969 20.171875 53.199219 20.789062 53.011719 C 21.40625 52.824219 22.03125 52.667969 22.664062 52.539062 C 23.296875 52.414062 23.9375 52.320312 24.578125 52.253906 C 25.222656 52.191406 25.867188 52.160156 26.511719 52.15625 L 298.941406 52.15625 C 304.804688 44.203125 310.078125 37.238281 314.753906 31.261719 C 322.882812 20.871094 329.152344 13.535156 333.917969 8.828125 C 338.773438 4.039062 343.910156 -0.0195312 348.613281 2.679688 C 353.925781 5.734375 352.121094 13.492188 349.816406 21.175781 C 347.628906 28.472656 343.792969 38.617188 338.101562 52.15625 L 348.4375 52.15625 C 349.082031 52.15625 349.726562 52.191406 350.371094 52.253906 C 351.011719 52.316406 351.652344 52.410156 352.285156 52.539062 C 352.917969 52.664062 353.546875 52.820312 354.164062 53.007812 C 354.78125 53.195312 355.390625 53.414062 355.988281 53.660156 C 356.582031 53.910156 357.167969 54.183594 357.738281 54.488281 C 358.308594 54.792969 358.859375 55.125 359.398438 55.484375 C 359.9375 55.839844 360.453125 56.226562 360.953125 56.636719 C 361.453125 57.042969 361.933594 57.476562 362.390625 57.933594 C 362.847656 58.390625 363.28125 58.867188 363.691406 59.367188 C 364.101562 59.867188 364.488281 60.382812 364.847656 60.921875 C 365.207031 61.457031 365.539062 62.007812 365.84375 62.578125 C 366.148438 63.148438 366.425781 63.730469 366.671875 64.328125 C 366.921875 64.921875 367.140625 65.53125 367.328125 66.148438 C 367.515625 66.765625 367.675781 67.390625 367.800781 68.023438 C 367.929688 68.65625 368.023438 69.296875 368.089844 69.9375 C 368.152344 70.582031 368.183594 71.226562 368.1875 71.871094 Z M 305.613281 59.765625 C 305.5 59.941406 305.375 60.113281 305.238281 60.273438 C 293.894531 75.71875 280.355469 94.808594 264.355469 117.90625 L 290.542969 133.011719 C 306.777344 98.5625 317.96875 74.042969 326.054688 55.238281 C 326.074219 55.191406 326.09375 55.140625 326.117188 55.09375 C 326.210938 54.871094 326.308594 54.640625 326.40625 54.417969 C 335.664062 32.832031 339.605469 21.46875 341.199219 15.492188 C 337.230469 19.386719 330.335938 27.132812 318.527344 42.53125 C 314.589844 47.667969 310.285156 53.414062 305.613281 59.765625 Z M 282.746094 149.511719 C 283.957031 146.949219 285.148438 144.441406 286.3125 141.976562 L 258.722656 126.058594 C 257.171875 128.3125 255.59375 130.601562 253.992188 132.925781 Z M 246.453125 139.976562 C 238.125 143.582031 236.765625 150.339844 235.0625 162.265625 C 233.484375 173.292969 231.585938 186.582031 219.425781 196.894531 C 238.8125 202.953125 252.636719 197.269531 261.164062 190.894531 C 273.65625 181.558594 279.855469 167.375 280.128906 159.402344 Z M 143.859375 335.046875 C 143.488281 335.046875 143.121094 335.082031 142.757812 335.15625 C 142.394531 335.226562 142.042969 335.335938 141.699219 335.476562 C 141.359375 335.617188 141.03125 335.792969 140.726562 335.996094 C 140.417969 336.203125 140.132812 336.4375 139.871094 336.699219 C 139.609375 336.960938 139.375 337.246094 139.167969 337.550781 C 138.960938 337.859375 138.789062 338.183594 138.648438 338.527344 C 138.503906 338.867188 138.398438 339.21875 138.324219 339.582031 C 138.253906 339.945312 138.214844 340.3125 138.214844 340.683594 L 138.214844 346.320312 L 236.753906 346.320312 L 236.753906 340.683594 C 236.753906 340.3125 236.71875 339.945312 236.644531 339.582031 C 236.574219 339.222656 236.464844 338.867188 236.324219 338.527344 C 236.183594 338.183594 236.007812 337.859375 235.800781 337.550781 C 235.597656 337.246094 235.363281 336.960938 235.101562 336.699219 C 234.839844 336.4375 234.554688 336.203125 234.246094 335.996094 C 233.9375 335.792969 233.613281 335.617188 233.269531 335.476562 C 232.929688 335.335938 232.578125 335.226562 232.214844 335.15625 C 231.851562 335.082031 231.484375 335.046875 231.113281 335.046875 Z M 215.625 325.171875 L 215.625 298.0625 L 159.34375 298.0625 L 159.34375 325.171875 Z M 358.304688 257.097656 L 16.667969 257.097656 L 16.667969 278.347656 C 16.667969 278.992188 16.730469 279.632812 16.859375 280.265625 C 16.984375 280.898438 17.171875 281.511719 17.417969 282.109375 C 17.667969 282.707031 17.96875 283.273438 18.328125 283.808594 C 18.6875 284.347656 19.097656 284.84375 19.554688 285.300781 C 20.011719 285.757812 20.507812 286.164062 21.042969 286.523438 C 21.582031 286.882812 22.148438 287.183594 22.746094 287.433594 C 23.34375 287.679688 23.957031 287.867188 24.589844 287.992188 C 25.222656 288.121094 25.863281 288.183594 26.511719 288.183594 L 348.4375 288.183594 C 349.085938 288.183594 349.726562 288.121094 350.359375 287.996094 C 350.996094 287.871094 351.609375 287.683594 352.207031 287.4375 C 352.804688 287.1875 353.375 286.886719 353.914062 286.527344 C 354.449219 286.167969 354.949219 285.761719 355.40625 285.304688 C 355.863281 284.847656 356.273438 284.351562 356.632812 283.8125 C 356.996094 283.277344 357.300781 282.710938 357.546875 282.113281 C 357.796875 281.515625 357.984375 280.902344 358.109375 280.269531 C 358.238281 279.632812 358.304688 278.992188 358.304688 278.347656 Z M 358.304688 71.871094 C 358.304688 71.222656 358.238281 70.585938 358.113281 69.949219 C 357.984375 69.316406 357.796875 68.703125 357.546875 68.105469 C 357.300781 67.507812 356.996094 66.941406 356.636719 66.40625 C 356.273438 65.867188 355.867188 65.371094 355.40625 64.914062 C 354.949219 64.457031 354.453125 64.050781 353.914062 63.691406 C 353.375 63.332031 352.808594 63.03125 352.210938 62.78125 C 351.613281 62.535156 350.996094 62.347656 350.363281 62.222656 C 349.726562 62.097656 349.085938 62.035156 348.441406 62.035156 L 333.882812 62.035156 C 325.507812 81.355469 313.847656 106.792969 297.34375 141.746094 C 297.253906 141.992188 297.140625 142.226562 297.011719 142.453125 L 297.003906 142.464844 C 294.746094 147.246094 292.398438 152.203125 289.960938 157.339844 C 290.667969 168.84375 282.46875 187.308594 267.078125 198.808594 C 264.820312 200.523438 262.441406 202.042969 259.9375 203.367188 C 257.433594 204.695312 254.839844 205.808594 252.15625 206.710938 C 249.46875 207.613281 246.730469 208.292969 243.933594 208.75 C 241.136719 209.203125 238.320312 209.429688 235.488281 209.425781 C 227.117188 209.425781 217.5625 207.515625 206.832031 202.613281 C 206.414062 202.421875 206.03125 202.179688 205.679688 201.882812 C 205.332031 201.585938 205.027344 201.246094 204.773438 200.867188 C 204.519531 200.484375 204.320312 200.078125 204.179688 199.640625 C 204.039062 199.203125 203.960938 198.757812 203.945312 198.300781 C 203.925781 197.839844 203.972656 197.390625 204.082031 196.945312 C 204.191406 196.5 204.359375 196.078125 204.585938 195.679688 C 204.8125 195.28125 205.089844 194.921875 205.417969 194.601562 C 205.746094 194.28125 206.109375 194.007812 206.511719 193.789062 C 221.757812 185.460938 223.464844 173.515625 225.273438 160.871094 C 226.929688 149.292969 228.804688 136.21875 243.722656 130.421875 C 246.875 125.832031 249.941406 121.378906 252.925781 117.0625 C 252.929688 117.050781 252.9375 117.035156 252.941406 117.023438 C 253.078125 116.792969 253.230469 116.574219 253.402344 116.367188 C 268.101562 95.101562 280.824219 77.066406 291.722656 62.035156 L 26.511719 62.035156 C 25.867188 62.039062 25.226562 62.101562 24.59375 62.226562 C 23.960938 62.351562 23.34375 62.539062 22.746094 62.789062 C 22.148438 63.035156 21.582031 63.335938 21.046875 63.695312 C 20.507812 64.054688 20.011719 64.460938 19.554688 64.917969 C 19.097656 65.375 18.6875 65.871094 18.328125 66.410156 C 17.972656 66.945312 17.667969 67.511719 17.417969 68.109375 C 17.171875 68.703125 16.984375 69.320312 16.859375 69.953125 C 16.730469 70.585938 16.667969 71.226562 16.667969 71.871094 L 16.667969 247.21875 L 358.304688 247.21875 Z M 185.296875 87.203125 L 185.296875 224.609375 C 185.296875 224.933594 185.265625 225.253906 185.203125 225.570312 C 185.140625 225.890625 185.046875 226.199219 184.921875 226.5 C 184.796875 226.796875 184.644531 227.082031 184.464844 227.351562 C 184.285156 227.621094 184.078125 227.871094 183.851562 228.101562 C 183.621094 228.328125 183.371094 228.535156 183.101562 228.714844 C 182.832031 228.894531 182.546875 229.046875 182.246094 229.171875 C 181.949219 229.292969 181.636719 229.386719 181.320312 229.449219 C 181.003906 229.515625 180.679688 229.546875 180.355469 229.546875 L 38.996094 229.546875 C 38.671875 229.546875 38.351562 229.515625 38.035156 229.449219 C 37.714844 229.386719 37.40625 229.292969 37.105469 229.171875 C 36.804688 229.046875 36.523438 228.894531 36.253906 228.714844 C 35.980469 228.535156 35.734375 228.328125 35.503906 228.101562 C 35.273438 227.871094 35.070312 227.621094 34.890625 227.351562 C 34.707031 227.082031 34.554688 226.796875 34.433594 226.5 C 34.308594 226.199219 34.214844 225.890625 34.152344 225.570312 C 34.085938 225.253906 34.054688 224.933594 34.054688 224.609375 L 34.054688 87.203125 C 34.054688 86.878906 34.085938 86.558594 34.152344 86.242188 C 34.214844 85.921875 34.308594 85.613281 34.433594 85.316406 C 34.554688 85.015625 34.707031 84.730469 34.890625 84.460938 C 35.070312 84.191406 35.273438 83.941406 35.503906 83.714844 C 35.734375 83.484375 35.980469 83.277344 36.253906 83.097656 C 36.523438 82.917969 36.804688 82.765625 37.105469 82.644531 C 37.40625 82.519531 37.714844 82.425781 38.035156 82.363281 C 38.351562 82.296875 38.671875 82.265625 38.996094 82.265625 L 180.355469 82.265625 C 180.679688 82.265625 181.003906 82.296875 181.320312 82.363281 C 181.636719 82.425781 181.949219 82.519531 182.246094 82.644531 C 182.546875 82.765625 182.832031 82.917969 183.101562 83.097656 C 183.371094 83.277344 183.621094 83.484375 183.851562 83.714844 C 184.078125 83.941406 184.285156 84.191406 184.464844 84.460938 C 184.644531 84.730469 184.796875 85.015625 184.921875 85.316406 C 185.046875 85.613281 185.140625 85.921875 185.203125 86.242188 C 185.265625 86.558594 185.296875 86.878906 185.296875 87.203125 Z M 127.878906 219.671875 L 93.496094 181.898438 L 93.464844 181.863281 L 76.796875 163.558594 C 76.597656 163.339844 76.375 163.140625 76.132812 162.964844 C 75.890625 162.789062 75.636719 162.640625 75.363281 162.515625 C 75.089844 162.394531 74.804688 162.304688 74.511719 162.242188 C 74.21875 162.179688 73.925781 162.148438 73.625 162.148438 C 73.324219 162.148438 73.03125 162.175781 72.738281 162.238281 C 72.445312 162.300781 72.160156 162.390625 71.886719 162.511719 C 71.613281 162.632812 71.355469 162.78125 71.113281 162.957031 C 70.871094 163.132812 70.652344 163.332031 70.449219 163.554688 L 43.9375 192.675781 L 43.9375 219.675781 Z M 175.410156 192.652344 L 136.382812 149.808594 C 136.179688 149.585938 135.960938 149.390625 135.71875 149.214844 C 135.476562 149.039062 135.21875 148.890625 134.945312 148.773438 C 134.671875 148.652344 134.390625 148.558594 134.097656 148.5 C 133.804688 148.4375 133.511719 148.40625 133.210938 148.40625 C 132.914062 148.40625 132.621094 148.4375 132.328125 148.5 C 132.035156 148.558594 131.753906 148.652344 131.480469 148.773438 C 131.207031 148.890625 130.949219 149.039062 130.707031 149.214844 C 130.464844 149.390625 130.246094 149.585938 130.042969 149.808594 L 103.839844 178.585938 L 141.242188 219.671875 L 175.410156 219.671875 Z M 175.410156 92.140625 L 43.9375 92.140625 L 43.9375 177.996094 L 63.132812 156.914062 C 63.464844 156.546875 63.8125 156.199219 64.179688 155.871094 C 64.546875 155.542969 64.929688 155.234375 65.328125 154.949219 C 65.730469 154.660156 66.144531 154.390625 66.570312 154.148438 C 66.996094 153.902344 67.4375 153.679688 67.886719 153.480469 C 68.335938 153.28125 68.796875 153.105469 69.265625 152.953125 C 69.734375 152.800781 70.210938 152.675781 70.691406 152.574219 C 71.175781 152.472656 71.660156 152.394531 72.152344 152.34375 C 72.640625 152.292969 73.132812 152.269531 73.625 152.269531 C 74.117188 152.269531 74.609375 152.292969 75.101562 152.347656 C 75.589844 152.398438 76.078125 152.472656 76.558594 152.578125 C 77.039062 152.679688 77.515625 152.804688 77.984375 152.957031 C 78.453125 153.109375 78.914062 153.285156 79.363281 153.484375 C 79.8125 153.683594 80.253906 153.90625 80.679688 154.152344 C 81.105469 154.398438 81.519531 154.664062 81.917969 154.953125 C 82.320312 155.242188 82.703125 155.550781 83.070312 155.878906 C 83.4375 156.207031 83.785156 156.554688 84.117188 156.917969 L 97.160156 171.25 L 122.734375 143.15625 C 123.066406 142.792969 123.414062 142.449219 123.78125 142.121094 C 124.148438 141.792969 124.53125 141.484375 124.933594 141.199219 C 125.332031 140.910156 125.742188 140.644531 126.171875 140.402344 C 126.597656 140.15625 127.035156 139.9375 127.484375 139.738281 C 127.9375 139.539062 128.394531 139.363281 128.863281 139.210938 C 129.332031 139.0625 129.804688 138.933594 130.285156 138.832031 C 130.769531 138.730469 131.253906 138.65625 131.742188 138.605469 C 132.230469 138.554688 132.722656 138.527344 133.214844 138.527344 C 133.707031 138.527344 134.195312 138.554688 134.683594 138.605469 C 135.175781 138.65625 135.660156 138.730469 136.140625 138.832031 C 136.621094 138.933594 137.097656 139.0625 137.566406 139.210938 C 138.03125 139.363281 138.492188 139.539062 138.941406 139.738281 C 139.390625 139.9375 139.828125 140.15625 140.257812 140.402344 C 140.683594 140.644531 141.097656 140.910156 141.496094 141.199219 C 141.894531 141.484375 142.277344 141.792969 142.644531 142.121094 C 143.011719 142.449219 143.359375 142.792969 143.691406 143.15625 L 175.410156 177.980469 Z M 57.464844 118.191406 C 57.464844 117.269531 57.554688 116.355469 57.734375 115.453125 C 57.914062 114.550781 58.183594 113.671875 58.535156 112.820312 C 58.886719 111.96875 59.320312 111.160156 59.832031 110.394531 C 60.34375 109.628906 60.925781 108.917969 61.578125 108.265625 C 62.230469 107.617188 62.941406 107.035156 63.707031 106.519531 C 64.476562 106.007812 65.285156 105.578125 66.136719 105.222656 C 66.988281 104.871094 67.867188 104.605469 68.773438 104.425781 C 69.675781 104.246094 70.589844 104.15625 71.511719 104.15625 C 72.433594 104.15625 73.347656 104.246094 74.253906 104.425781 C 75.15625 104.605469 76.035156 104.871094 76.886719 105.222656 C 77.738281 105.578125 78.550781 106.007812 79.316406 106.519531 C 80.082031 107.035156 80.792969 107.617188 81.445312 108.265625 C 82.097656 108.917969 82.679688 109.628906 83.191406 110.394531 C 83.703125 111.160156 84.136719 111.96875 84.488281 112.820312 C 84.84375 113.671875 85.109375 114.550781 85.289062 115.453125 C 85.46875 116.355469 85.558594 117.269531 85.558594 118.191406 C 85.558594 119.113281 85.46875 120.027344 85.289062 120.929688 C 85.109375 121.832031 84.84375 122.710938 84.488281 123.5625 C 84.136719 124.414062 83.703125 125.222656 83.191406 125.988281 C 82.679688 126.753906 82.097656 127.464844 81.445312 128.117188 C 80.792969 128.769531 80.082031 129.351562 79.316406 129.863281 C 78.550781 130.375 77.738281 130.804688 76.886719 131.160156 C 76.035156 131.511719 75.15625 131.777344 74.253906 131.957031 C 73.347656 132.136719 72.433594 132.226562 71.511719 132.226562 C 70.589844 132.226562 69.675781 132.136719 68.773438 131.957031 C 67.867188 131.773438 66.992188 131.507812 66.140625 131.15625 C 65.289062 130.800781 64.476562 130.371094 63.710938 129.859375 C 62.945312 129.34375 62.234375 128.761719 61.582031 128.113281 C 60.933594 127.460938 60.347656 126.753906 59.835938 125.984375 C 59.324219 125.21875 58.890625 124.410156 58.539062 123.5625 C 58.183594 122.710938 57.917969 121.832031 57.738281 120.929688 C 57.558594 120.023438 57.464844 119.113281 57.464844 118.191406 Z M 67.347656 118.191406 C 67.347656 118.464844 67.375 118.734375 67.429688 119.003906 C 67.480469 119.269531 67.5625 119.53125 67.664062 119.78125 C 67.769531 120.035156 67.898438 120.273438 68.050781 120.5 C 68.203125 120.726562 68.375 120.9375 68.566406 121.128906 C 68.761719 121.324219 68.972656 121.496094 69.199219 121.648438 C 69.425781 121.796875 69.667969 121.925781 69.917969 122.03125 C 70.171875 122.132812 70.429688 122.214844 70.699219 122.265625 C 70.96875 122.320312 71.238281 122.347656 71.511719 122.347656 C 71.785156 122.347656 72.054688 122.320312 72.324219 122.265625 C 72.589844 122.210938 72.851562 122.132812 73.101562 122.027344 C 73.355469 121.925781 73.59375 121.796875 73.820312 121.644531 C 74.050781 121.492188 74.257812 121.320312 74.453125 121.125 C 74.644531 120.933594 74.816406 120.722656 74.96875 120.496094 C 75.121094 120.269531 75.25 120.03125 75.351562 119.777344 C 75.457031 119.527344 75.535156 119.265625 75.589844 118.996094 C 75.644531 118.730469 75.667969 118.460938 75.667969 118.1875 C 75.667969 117.914062 75.644531 117.644531 75.589844 117.375 C 75.535156 117.109375 75.457031 116.847656 75.351562 116.597656 C 75.246094 116.34375 75.121094 116.105469 74.96875 115.878906 C 74.816406 115.652344 74.644531 115.441406 74.449219 115.246094 C 74.257812 115.054688 74.046875 114.882812 73.820312 114.730469 C 73.59375 114.578125 73.351562 114.449219 73.101562 114.347656 C 72.847656 114.242188 72.589844 114.164062 72.320312 114.109375 C 72.050781 114.058594 71.78125 114.03125 71.507812 114.03125 C 71.234375 114.03125 70.964844 114.058594 70.695312 114.109375 C 70.429688 114.164062 70.167969 114.242188 69.914062 114.347656 C 69.664062 114.453125 69.421875 114.582031 69.195312 114.734375 C 68.96875 114.882812 68.757812 115.058594 68.566406 115.25 C 68.371094 115.445312 68.199219 115.652344 68.046875 115.878906 C 67.898438 116.109375 67.769531 116.347656 67.664062 116.601562 C 67.558594 116.851562 67.480469 117.113281 67.425781 117.378906 C 67.375 117.648438 67.347656 117.917969 67.347656 118.191406 Z M 67.347656 118.191406 " fill-opacity="1" fill-rule="nonzero"/></g></svg>