<svg xmlns="http://www.w3.org/2000/svg" xmlns:xlink="http://www.w3.org/1999/xlink" width="1500" zoomAndPan="magnify" viewBox="0 0 1125 1124.99995" height="1500" preserveAspectRatio="xMidYMid meet" version="1.0"><defs><g/></defs><rect x="-112.5" width="1350" fill="#ffffff" y="-112.499995" height="1349.99994" fill-opacity="1"/><rect x="-112.5" width="1350" fill="#ffffff" y="-112.499995" height="1349.99994" fill-opacity="1"/><g fill="#fec246" fill-opacity="1"><g transform="translate(174.287293, 902.680665)"><g><path d="M 151.421875 -669.671875 L 256.484375 -670.34375 L 205.875 -373.859375 L 224.984375 -373.984375 L 347.234375 -670.921875 L 456.140625 -671.609375 L 315.953125 -336.359375 L 347.703125 -2.21875 L 238.8125 -1.53125 L 213.015625 -302.265625 L 193.90625 -302.140625 L 143.296875 -0.921875 L 38.203125 -0.25 Z M 151.421875 -669.671875 "/></g></g></g><g fill="#fec246" fill-opacity="1"><g transform="translate(624.20625, 899.801708)"><g><path d="M 151.421875 -669.671875 L 256.484375 -670.34375 L 159.84375 -101.328125 L 264.90625 -102 L 248.375 -1.59375 L 38.203125 -0.25 Z M 151.421875 -669.671875 "/></g></g></g><g fill="#000000" fill-opacity="1"><g transform="translate(121.008762, 881.550294)"><g><path d="M 151.421875 -669.671875 L 256.484375 -670.34375 L 205.875 -373.859375 L 224.984375 -373.984375 L 347.234375 -670.921875 L 456.140625 -671.609375 L 315.953125 -336.359375 L 347.703125 -2.21875 L 238.8125 -1.53125 L 213.015625 -302.265625 L 193.90625 -302.140625 L 143.296875 -0.921875 L 38.203125 -0.25 Z M 151.421875 -669.671875 "/></g></g></g><g fill="#000000" fill-opacity="1"><g transform="translate(570.927718, 878.671337)"><g><path d="M 151.421875 -669.671875 L 256.484375 -670.34375 L 159.84375 -101.328125 L 264.90625 -102 L 248.375 -1.59375 L 38.203125 -0.25 Z M 151.421875 -669.671875 "/></g></g></g></svg>