<svg xmlns="http://www.w3.org/2000/svg" xmlns:xlink="http://www.w3.org/1999/xlink" width="500" zoomAndPan="magnify" viewBox="0 0 375 374.999991" height="500" preserveAspectRatio="xMidYMid meet" version="1.0"><defs><clipPath id="cf57fcdf95"><path d="M 61 7 L 371.453125 7 L 371.453125 368 L 61 368 Z M 61 7 " clip-rule="nonzero"/></clipPath><clipPath id="cab95dc4f8"><path d="M 3.542969 0 L 329 0 L 329 375 L 3.542969 375 Z M 3.542969 0 " clip-rule="nonzero"/></clipPath></defs><g clip-path="url(#cf57fcdf95)"><path fill="#111167" d="M 371.234375 7.96875 L 61.953125 189.882812 L 371.234375 367.242188 L 300.511719 187.605469 L 371.234375 7.96875 " fill-opacity="1" fill-rule="nonzero"/></g><g clip-path="url(#cab95dc4f8)"><path fill="#faf9f7" d="M 324.855469 14.789062 C 303.457031 27.375 282.0625 39.960938 260.664062 52.546875 C 217.269531 78.070312 173.871094 103.59375 130.484375 129.117188 C 96.289062 149.226562 62.101562 169.335938 27.917969 189.4375 C 23.800781 191.855469 19.6875 194.28125 15.570312 196.699219 L 15.570312 183.058594 C 37.199219 195.457031 58.816406 207.851562 80.4375 220.253906 C 124.125 245.308594 167.8125 270.363281 211.503906 295.417969 C 245.507812 314.921875 279.511719 334.414062 313.515625 353.917969 C 317.296875 356.082031 321.074219 358.253906 324.855469 360.417969 C 320.988281 363.398438 317.121094 366.367188 313.25 369.34375 C 299.878906 335.371094 286.503906 301.40625 273.128906 267.441406 C 265 246.785156 256.875 226.136719 248.738281 205.480469 C 246.816406 200.59375 244.890625 195.710938 242.972656 190.828125 C 241.660156 187.496094 242.757812 184.921875 243.957031 181.878906 C 259.75 141.785156 275.53125 101.683594 291.3125 61.59375 C 298.625 43.019531 305.9375 24.441406 313.25 5.867188 C 314.828125 1.867188 318.480469 -0.882812 322.96875 0.351562 C 326.785156 1.402344 330.0625 6.058594 328.484375 10.066406 C 315.109375 44.035156 301.738281 78 288.367188 111.964844 C 278.167969 137.878906 267.964844 163.789062 257.765625 189.695312 L 257.765625 185.503906 C 271.140625 219.46875 284.511719 253.433594 297.882812 287.40625 C 308.082031 313.316406 318.285156 339.222656 328.484375 365.140625 C 331.148438 371.910156 322.410156 377.222656 316.882812 374.058594 C 295.261719 361.664062 273.644531 349.261719 252.023438 336.859375 C 208.335938 311.804688 164.636719 286.757812 120.949219 261.703125 C 86.945312 242.199219 52.941406 222.699219 18.941406 203.195312 C 15.160156 201.03125 11.382812 198.867188 7.601562 196.695312 C 2.433594 193.734375 2.519531 186.039062 7.601562 183.054688 C 29 170.472656 50.394531 157.886719 71.792969 145.296875 C 115.191406 119.777344 158.578125 94.253906 201.976562 68.730469 C 236.164062 48.621094 270.355469 28.515625 304.542969 8.402344 C 308.65625 5.984375 312.769531 3.5625 316.882812 1.144531 C 325.683594 -4.03125 333.628906 9.625 324.855469 14.785156 " fill-opacity="1" fill-rule="nonzero"/></g></svg>