<svg xmlns="http://www.w3.org/2000/svg" xmlns:xlink="http://www.w3.org/1999/xlink" width="500" zoomAndPan="magnify" viewBox="0 0 375 374.999991" height="500" preserveAspectRatio="xMidYMid meet" version="1.0"><defs><clipPath id="2ccc93c500"><path d="M 8 35.15625 L 300 35.15625 L 300 314 L 8 314 Z M 8 35.15625 " clip-rule="nonzero"/></clipPath></defs><g clip-path="url(#2ccc93c500)"><path fill="#000000" d="M 299.484375 58.640625 L 287.339844 58.640625 L 287.339844 52.695312 C 287.339844 49.277344 284.554688 46.492188 281.140625 46.492188 L 26.355469 46.492188 C 22.875 46.492188 20.15625 49.277344 20.15625 52.695312 L 20.15625 210.359375 C 20.15625 213.777344 22.941406 216.558594 26.355469 216.558594 L 165.890625 216.558594 L 165.890625 265.152344 L 139.074219 265.152344 L 129.964844 301.59375 L 165.890625 301.59375 L 165.890625 313.742188 L 99.097656 313.742188 C 95.679688 313.742188 93.023438 311.019531 93.023438 307.667969 C 93.023438 304.441406 95.746094 301.59375 99.160156 301.59375 L 114.910156 301.59375 C 116.300781 301.59375 117.566406 300.519531 117.882812 299.253906 L 126.421875 265.152344 L 26.355469 265.152344 C 16.234375 265.152344 8.011719 256.925781 8.011719 246.992188 L 8.011719 52.503906 C 8.011719 42.445312 16.109375 34.347656 26.355469 34.347656 L 281.140625 34.347656 C 291.261719 34.347656 299.484375 42.570312 299.484375 52.503906 Z M 153.746094 253.003906 C 160.453125 253.003906 165.890625 247.5625 165.890625 240.855469 C 165.890625 234.148438 160.453125 228.707031 153.746094 228.707031 C 147.042969 228.707031 141.601562 234.148438 141.601562 240.855469 C 141.601562 247.5625 147.042969 253.003906 153.746094 253.003906 Z M 153.746094 253.003906 " fill-opacity="1" fill-rule="evenodd"/></g><path fill="#000000" d="M 348.0625 119.378906 L 335.917969 119.378906 L 335.917969 95.085938 L 190.183594 95.085938 L 190.183594 289.445312 L 238.761719 289.445312 L 238.761719 325.890625 L 196.316406 325.890625 C 186.195312 325.890625 178.039062 317.789062 178.039062 307.605469 L 178.039062 89.074219 C 178.039062 78.949219 186.132812 70.789062 196.316406 70.789062 L 329.78125 70.789062 C 339.902344 70.789062 348.0625 78.886719 348.0625 89.074219 Z M 348.0625 119.378906 " fill-opacity="1" fill-rule="evenodd"/><path fill="#000000" d="M 269.183594 131.527344 L 354.070312 131.527344 C 364.191406 131.527344 372.351562 139.625 372.351562 149.8125 L 372.351562 319.75 C 372.351562 329.875 364.253906 338.035156 354.070312 338.035156 L 269.183594 338.035156 C 259.066406 338.035156 250.90625 329.9375 250.90625 319.75 L 250.90625 149.8125 C 250.90625 139.6875 259 131.527344 269.183594 131.527344 Z M 263.050781 289.445312 L 360.207031 289.445312 L 360.207031 155.824219 L 263.050781 155.824219 Z M 311.628906 325.890625 C 318.332031 325.890625 323.773438 320.449219 323.773438 313.742188 C 323.773438 307.035156 318.332031 301.59375 311.628906 301.59375 C 304.921875 301.59375 299.484375 307.035156 299.484375 313.742188 C 299.484375 320.449219 304.921875 325.890625 311.628906 325.890625 Z M 311.628906 325.890625 " fill-opacity="1" fill-rule="evenodd"/></svg>