<svg xmlns="http://www.w3.org/2000/svg" xmlns:xlink="http://www.w3.org/1999/xlink" width="500" zoomAndPan="magnify" viewBox="0 0 375 374.999991" height="500" preserveAspectRatio="xMidYMid meet" version="1.0"><defs><clipPath id="1879e86d3c"><path d="M 11.402344 13 L 374 13 L 374 375 L 11.402344 375 Z M 11.402344 13 " clip-rule="nonzero"/></clipPath></defs><g clip-path="url(#1879e86d3c)"><path fill="#000000" d="M 365.402344 317.863281 L 320.316406 267.167969 C 317.09375 263.546875 312.667969 261.535156 307.835938 261.132812 C 303.003906 260.730469 298.175781 262.339844 294.550781 265.558594 L 286.902344 272.398438 L 269.996094 253.085938 C 307.835938 216.46875 321.523438 162.152344 305.421875 111.855469 L 339.640625 77.65625 L 348.898438 86.910156 C 350.507812 88.519531 352.925781 88.921875 354.9375 88.519531 C 356.949219 87.714844 358.558594 86.105469 358.960938 83.691406 L 369.027344 20.921875 C 369.429688 18.910156 368.625 16.898438 367.417969 15.691406 C 366.207031 14.484375 364.195312 13.679688 362.183594 14.082031 L 299.785156 24.140625 C 297.371094 24.542969 295.757812 26.152344 294.953125 28.164062 C 294.148438 30.175781 294.953125 32.589844 296.566406 34.199219 L 305.824219 43.453125 L 281.667969 67.195312 C 280.460938 65.585938 278.851562 63.976562 277.644531 62.367188 C 227.324219 5.632812 139.964844 0 82.800781 50.296875 C 75.152344 57.136719 68.710938 64.378906 63.074219 72.023438 C 63.074219 72.023438 62.671875 72.425781 62.671875 72.425781 C 55.023438 82.886719 48.984375 94.554688 44.558594 106.625 C 44.152344 108.234375 43.75 109.039062 43.75 109.84375 C 30.871094 148.070312 34.894531 191.121094 57.035156 226.929688 L 17.585938 226.929688 C 14.363281 226.527344 11.546875 229.34375 11.546875 232.5625 L 11.546875 352.46875 C 11.546875 355.6875 14.363281 358.503906 17.585938 358.503906 L 222.089844 358.503906 C 225.308594 358.503906 228.128906 355.6875 228.128906 352.46875 L 228.128906 280.445312 C 239.800781 275.617188 251.074219 268.777344 261.136719 260.730469 L 278.046875 280.042969 L 270.398438 286.882812 C 266.773438 290.101562 264.761719 294.527344 264.359375 299.355469 C 263.957031 304.183594 265.566406 309.011719 268.789062 312.632812 L 313.875 363.332031 C 320.71875 370.976562 329.976562 375 339.640625 375 C 347.691406 375 355.742188 372.183594 362.183594 366.550781 C 369.027344 360.515625 373.050781 352.066406 373.457031 343.214844 C 374.261719 333.558594 371.441406 324.703125 365.402344 317.863281 Z M 318.707031 39.429688 L 313.472656 34.199219 L 356.546875 27.359375 L 349.703125 70.414062 L 344.46875 65.183594 C 342.054688 62.769531 338.433594 62.769531 336.015625 65.183594 L 294.550781 105.820312 L 229.335938 171.003906 L 196.726562 138.410156 C 194.3125 135.996094 190.6875 135.996094 188.273438 138.410156 L 137.148438 189.109375 L 56.632812 109.039062 C 59.453125 100.992188 63.476562 93.347656 67.90625 86.507812 L 132.71875 151.289062 C 135.132812 153.703125 138.757812 153.703125 141.171875 151.289062 L 192.300781 100.589844 L 224.90625 133.179688 C 227.324219 135.59375 230.945312 135.59375 233.363281 133.179688 L 318.304688 48.6875 C 319.511719 47.480469 319.914062 45.867188 319.914062 44.257812 C 319.914062 42.648438 319.511719 40.636719 318.707031 39.429688 Z M 90.851562 59.953125 C 142.785156 14.082031 222.492188 18.910156 268.386719 70.816406 C 269.996094 72.425781 271.605469 74.4375 272.8125 76.449219 L 229.335938 119.902344 L 196.726562 87.3125 C 194.3125 84.898438 190.6875 84.898438 188.273438 87.3125 L 137.148438 138.007812 L 75.152344 76.449219 C 79.984375 70.414062 85.214844 64.78125 90.851562 59.953125 Z M 216.050781 346.433594 L 23.625 346.433594 L 23.625 238.601562 L 216.050781 238.601562 Z M 222.089844 226.527344 L 71.527344 226.527344 C 49.386719 195.546875 43.347656 156.921875 52.609375 121.914062 L 132.71875 201.984375 C 133.925781 203.191406 135.539062 203.59375 137.148438 203.59375 C 138.757812 203.59375 140.367188 203.191406 141.574219 201.984375 L 192.703125 151.289062 L 225.308594 183.878906 C 227.726562 186.292969 231.347656 186.292969 233.765625 183.878906 L 296.160156 121.914062 C 308.238281 167.785156 293.746094 216.46875 257.917969 248.257812 C 249.0625 256.304688 238.996094 262.742188 228.53125 267.570312 L 228.53125 232.964844 C 228.128906 229.34375 225.308594 226.527344 222.089844 226.527344 Z M 354.535156 357.296875 C 345.277344 365.34375 331.183594 364.539062 323.132812 355.285156 L 278.046875 304.183594 C 276.839844 302.976562 276.4375 301.367188 276.4375 299.757812 C 276.4375 298.148438 277.242188 296.539062 278.449219 295.734375 L 302.601562 274.410156 C 303.8125 273.605469 305.019531 272.800781 306.628906 272.800781 C 306.628906 272.800781 307.03125 272.800781 307.03125 272.800781 C 308.640625 272.800781 310.253906 273.605469 311.058594 274.8125 L 356.144531 325.910156 C 360.171875 330.339844 361.78125 335.972656 361.78125 342.007812 C 361.378906 348.042969 358.558594 353.273438 354.535156 357.296875 Z M 354.535156 357.296875 " fill-opacity="1" fill-rule="nonzero"/></g><path fill="#000000" d="M 39.726562 278.433594 C 39.726562 289.699219 48.984375 298.550781 59.855469 298.550781 L 63.074219 298.550781 C 67.503906 298.550781 71.125 302.171875 71.125 306.597656 C 71.125 311.023438 67.503906 314.644531 63.074219 314.644531 L 45.765625 314.644531 C 42.542969 314.644531 39.726562 317.460938 39.726562 320.679688 C 39.726562 323.898438 42.542969 326.714844 45.765625 326.714844 L 63.074219 326.714844 C 74.347656 326.714844 83.203125 317.863281 83.203125 306.597656 C 83.203125 295.332031 73.945312 286.480469 63.074219 286.480469 L 59.855469 286.480469 C 55.425781 286.480469 51.804688 282.859375 51.804688 278.433594 C 51.804688 274.007812 55.425781 270.386719 59.855469 270.386719 L 77.164062 270.386719 C 80.386719 270.386719 83.203125 267.570312 83.203125 264.351562 C 83.203125 261.132812 80.386719 258.316406 77.164062 258.316406 L 59.855469 258.316406 C 48.984375 258.316406 39.726562 267.167969 39.726562 278.433594 Z M 39.726562 278.433594 " fill-opacity="1" fill-rule="nonzero"/><path fill="#000000" d="M 104.136719 326.714844 L 135.539062 326.714844 C 138.757812 326.714844 141.574219 323.898438 141.574219 320.679688 C 141.574219 317.460938 138.757812 314.644531 135.539062 314.644531 L 110.175781 314.644531 L 110.175781 298.550781 L 135.539062 298.550781 C 138.757812 298.550781 141.574219 295.734375 141.574219 292.515625 C 141.574219 289.296875 138.757812 286.480469 135.539062 286.480469 L 110.175781 286.480469 L 110.175781 270.386719 L 135.539062 270.386719 C 138.757812 270.386719 141.574219 267.570312 141.574219 264.351562 C 141.574219 261.132812 138.757812 258.316406 135.539062 258.316406 L 104.136719 258.316406 C 100.917969 258.316406 98.097656 261.132812 98.097656 264.351562 L 98.097656 320.679688 C 98.097656 323.898438 100.917969 326.714844 104.136719 326.714844 Z M 104.136719 326.714844 " fill-opacity="1" fill-rule="nonzero"/><path fill="#000000" d="M 178.210938 326.714844 C 190.285156 326.714844 199.949219 317.058594 199.949219 304.988281 L 199.949219 279.640625 C 199.949219 267.570312 190.285156 257.914062 178.210938 257.914062 C 166.132812 257.914062 156.472656 267.570312 156.472656 279.640625 L 156.472656 304.988281 C 156.472656 317.058594 166.132812 326.714844 178.210938 326.714844 Z M 168.546875 280.042969 C 168.546875 274.8125 172.976562 270.386719 178.210938 270.386719 C 183.441406 270.386719 187.871094 274.8125 187.871094 280.042969 L 187.871094 305.390625 C 187.871094 310.621094 183.441406 315.046875 178.210938 315.046875 C 172.976562 315.046875 168.546875 310.621094 168.546875 305.390625 Z M 168.546875 280.042969 " fill-opacity="1" fill-rule="nonzero"/></svg>