<svg xmlns="http://www.w3.org/2000/svg" xmlns:xlink="http://www.w3.org/1999/xlink" width="500" zoomAndPan="magnify" viewBox="0 0 375 374.999991" height="500" preserveAspectRatio="xMidYMid meet" version="1.0"><defs><g/><clipPath id="1dbce2454d"><path d="M 98.566406 61.695312 L 276.316406 61.695312 L 276.316406 180 L 98.566406 180 Z M 98.566406 61.695312 " clip-rule="nonzero"/></clipPath><clipPath id="81a2fc2723"><path d="M 149 193 L 226 193 L 226 216.945312 L 149 216.945312 Z M 149 193 " clip-rule="nonzero"/></clipPath></defs><g clip-path="url(#1dbce2454d)"><path fill="#050a30" d="M 110.417969 66.59375 C 106.75 66.59375 103.761719 69.582031 103.761719 73.25 L 103.761719 167.941406 C 103.761719 171.617188 106.75 174.59375 110.417969 174.59375 L 264.832031 174.59375 C 268.5 174.59375 271.484375 171.617188 271.484375 167.941406 L 271.484375 73.25 C 271.484375 69.582031 268.5 66.59375 264.832031 66.59375 Z M 264.832031 179.578125 L 110.417969 179.578125 C 104.003906 179.578125 98.78125 174.363281 98.78125 167.941406 L 98.78125 73.25 C 98.78125 66.835938 104.003906 61.613281 110.417969 61.613281 L 264.832031 61.613281 C 271.242188 61.613281 276.46875 66.835938 276.46875 73.25 L 276.46875 167.941406 C 276.46875 174.363281 271.242188 179.578125 264.832031 179.578125 " fill-opacity="1" fill-rule="nonzero"/></g><path fill="#050a30" d="M 273.976562 159.136719 L 101.273438 159.136719 L 101.273438 154.152344 L 273.976562 154.152344 L 273.976562 159.136719 " fill-opacity="1" fill-rule="nonzero"/><path fill="#050a30" d="M 168.484375 196.925781 L 163.589844 195.992188 L 167.308594 176.621094 L 172.191406 177.554688 L 168.484375 196.925781 " fill-opacity="1" fill-rule="nonzero"/><path fill="#050a30" d="M 206.78125 196.925781 L 203.074219 177.554688 L 207.960938 176.621094 L 211.675781 195.992188 L 206.78125 196.925781 " fill-opacity="1" fill-rule="nonzero"/><g clip-path="url(#81a2fc2723)"><path fill="#050a30" d="M 160.789062 198.949219 C 157.265625 198.949219 154.40625 201.808594 154.40625 205.332031 C 154.40625 208.855469 157.265625 211.726562 160.789062 211.726562 L 214.460938 211.726562 C 217.980469 211.726562 220.84375 208.855469 220.84375 205.332031 C 220.84375 201.808594 217.980469 198.949219 214.460938 198.949219 Z M 214.460938 216.707031 L 160.789062 216.707031 C 154.523438 216.707031 149.425781 211.609375 149.425781 205.332031 C 149.425781 199.066406 154.523438 193.96875 160.789062 193.96875 L 214.460938 193.96875 C 220.726562 193.96875 225.824219 199.066406 225.824219 205.332031 C 225.824219 211.609375 220.726562 216.707031 214.460938 216.707031 " fill-opacity="1" fill-rule="nonzero"/></g><path fill="#050a30" d="M 171.550781 131.714844 C 170.898438 131.714844 170.246094 131.464844 169.761719 130.957031 C 169.703125 130.890625 159.183594 119.75 156.011719 116.390625 C 154.609375 114.914062 154.609375 112.578125 156.011719 111.089844 L 169.742188 96.542969 C 170.695312 95.539062 172.261719 95.492188 173.261719 96.445312 C 174.265625 97.390625 174.3125 98.964844 173.371094 99.96875 L 160.359375 113.746094 C 164.125 117.734375 173.183594 127.328125 173.359375 127.511719 C 174.304688 128.503906 174.265625 130.082031 173.273438 131.023438 C 172.785156 131.492188 172.171875 131.714844 171.550781 131.714844 " fill-opacity="1" fill-rule="nonzero"/><path fill="#050a30" d="M 215.605469 114.503906 L 215.636719 114.503906 Z M 203.699219 131.714844 C 203.074219 131.714844 202.460938 131.492188 201.976562 131.023438 C 200.984375 130.082031 200.945312 128.503906 201.886719 127.511719 C 202.0625 127.328125 211.121094 117.722656 214.886719 113.746094 L 201.878906 99.96875 C 200.933594 98.964844 200.984375 97.390625 201.984375 96.445312 C 202.988281 95.492188 204.554688 95.539062 205.507812 96.542969 L 219.238281 111.089844 C 220.636719 112.578125 220.636719 114.914062 219.238281 116.390625 C 216.066406 119.75 205.546875 130.890625 205.488281 130.957031 C 205 131.464844 204.351562 131.714844 203.699219 131.714844 " fill-opacity="1" fill-rule="nonzero"/><path fill="#050a30" d="M 182.699219 136.472656 C 182.507812 136.472656 182.300781 136.453125 182.105469 136.40625 C 180.765625 136.085938 179.949219 134.730469 180.269531 133.398438 L 190.132812 92.902344 C 190.464844 91.570312 191.808594 90.742188 193.140625 91.074219 C 194.484375 91.40625 195.300781 92.746094 194.980469 94.089844 L 185.113281 134.578125 C 184.839844 135.714844 183.820312 136.472656 182.699219 136.472656 " fill-opacity="1" fill-rule="nonzero"/><g fill="#050a30" fill-opacity="1"><g transform="translate(131.269943, 269.947585)"><g><path d="M 8.890625 -6.0625 L 20.046875 -6.0625 C 20.953125 -6.0625 21.609375 -5.957031 22.015625 -5.75 C 22.421875 -5.550781 22.691406 -5.234375 22.828125 -4.796875 C 22.972656 -4.359375 23.046875 -3.773438 23.046875 -3.046875 C 23.046875 -2.328125 22.972656 -1.75 22.828125 -1.3125 C 22.691406 -0.875 22.460938 -0.570312 22.140625 -0.40625 C 21.617188 -0.132812 20.910156 0 20.015625 0 L 5.25 0 C 3.332031 0 2.210938 -0.519531 1.890625 -1.5625 C 1.722656 -2 1.640625 -2.695312 1.640625 -3.65625 L 1.640625 -26.4375 C 1.640625 -27.070312 1.660156 -27.546875 1.703125 -27.859375 C 1.742188 -28.171875 1.875 -28.535156 2.09375 -28.953125 C 2.476562 -29.679688 3.539062 -30.046875 5.28125 -30.046875 C 7.195312 -30.046875 8.332031 -29.539062 8.6875 -28.53125 C 8.820312 -28.070312 8.890625 -27.363281 8.890625 -26.40625 Z M 8.890625 -6.0625 "/></g></g></g><g fill="#050a30" fill-opacity="1"><g transform="translate(158.161312, 269.947585)"><g><path d="M 1.640625 -26.4375 C 1.640625 -27.070312 1.660156 -27.546875 1.703125 -27.859375 C 1.742188 -28.171875 1.875 -28.535156 2.09375 -28.953125 C 2.476562 -29.679688 3.539062 -30.046875 5.28125 -30.046875 C 7.195312 -30.046875 8.332031 -29.539062 8.6875 -28.53125 C 8.820312 -28.070312 8.890625 -27.363281 8.890625 -26.40625 L 8.890625 -3.609375 C 8.890625 -2.953125 8.867188 -2.472656 8.828125 -2.171875 C 8.796875 -1.867188 8.671875 -1.515625 8.453125 -1.109375 C 8.066406 -0.367188 7 0 5.25 0 C 3.332031 0 2.210938 -0.519531 1.890625 -1.5625 C 1.722656 -2 1.640625 -2.695312 1.640625 -3.65625 Z M 1.640625 -26.4375 "/></g></g></g><g fill="#050a30" fill-opacity="1"><g transform="translate(171.525261, 269.947585)"><g><path d="M 23.046875 -16.109375 C 24.648438 -14.203125 25.453125 -12.054688 25.453125 -9.671875 C 25.398438 -6.941406 24.460938 -4.65625 22.640625 -2.8125 C 20.828125 -0.96875 18.625 -0.046875 16.03125 -0.046875 L 5.25 -0.046875 C 3.332031 -0.046875 2.210938 -0.5625 1.890625 -1.59375 C 1.722656 -2.0625 1.640625 -2.773438 1.640625 -3.734375 L 1.640625 -26.484375 C 1.640625 -27.140625 1.660156 -27.617188 1.703125 -27.921875 C 1.742188 -28.222656 1.875 -28.578125 2.09375 -28.984375 C 2.476562 -29.722656 3.539062 -30.09375 5.28125 -30.09375 L 15.625 -30.09375 C 18.132812 -30.09375 20.238281 -29.21875 21.9375 -27.46875 C 23.707031 -25.695312 24.59375 -23.566406 24.59375 -21.078125 C 24.59375 -19.273438 24.078125 -17.617188 23.046875 -16.109375 Z M 18.203125 -10.09375 C 18.203125 -10.738281 18.125 -11.253906 17.96875 -11.640625 C 17.820312 -12.023438 17.570312 -12.300781 17.21875 -12.46875 C 16.675781 -12.6875 15.910156 -12.796875 14.921875 -12.796875 C 13.941406 -12.796875 13.203125 -12.984375 12.703125 -13.359375 C 12.210938 -13.742188 11.96875 -14.53125 11.96875 -15.71875 C 11.96875 -16.90625 12.21875 -17.691406 12.71875 -18.078125 C 13.226562 -18.460938 14.070312 -18.65625 15.25 -18.65625 C 16.34375 -18.65625 17 -18.941406 17.21875 -19.515625 C 17.300781 -19.816406 17.34375 -20.304688 17.34375 -20.984375 C 17.34375 -21.671875 17.113281 -22.148438 16.65625 -22.421875 C 16.207031 -22.703125 15.535156 -22.84375 14.640625 -22.84375 L 8.890625 -22.84375 L 8.890625 -7.296875 L 15.625 -7.296875 C 17.34375 -7.296875 18.203125 -8.226562 18.203125 -10.09375 Z M 18.203125 -10.09375 "/></g></g></g><g fill="#050a30" fill-opacity="1"><g transform="translate(200.835174, 269.947585)"><g><path d="M 1.640625 -26.4375 C 1.640625 -27.070312 1.660156 -27.546875 1.703125 -27.859375 C 1.742188 -28.171875 1.875 -28.535156 2.09375 -28.953125 C 2.476562 -29.679688 3.539062 -30.046875 5.28125 -30.046875 C 7.195312 -30.046875 8.332031 -29.539062 8.6875 -28.53125 C 8.820312 -28.070312 8.890625 -27.363281 8.890625 -26.40625 L 8.890625 -3.609375 C 8.890625 -2.953125 8.867188 -2.472656 8.828125 -2.171875 C 8.796875 -1.867188 8.671875 -1.515625 8.453125 -1.109375 C 8.066406 -0.367188 7 0 5.25 0 C 3.332031 0 2.210938 -0.519531 1.890625 -1.5625 C 1.722656 -2 1.640625 -2.695312 1.640625 -3.65625 Z M 1.640625 -26.4375 "/></g></g></g><g fill="#050a30" fill-opacity="1"><g transform="translate(214.199126, 269.947585)"><g><path d="M 21.046875 -28.796875 C 21.304688 -29.273438 21.695312 -29.597656 22.21875 -29.765625 C 22.738281 -29.929688 23.390625 -30.015625 24.171875 -30.015625 C 24.953125 -30.015625 25.578125 -29.945312 26.046875 -29.8125 C 26.523438 -29.675781 26.878906 -29.507812 27.109375 -29.3125 C 27.347656 -29.125 27.523438 -28.835938 27.640625 -28.453125 C 27.796875 -28.015625 27.875 -27.316406 27.875 -26.359375 L 27.875 -3.609375 C 27.875 -2.953125 27.851562 -2.472656 27.8125 -2.171875 C 27.769531 -1.867188 27.640625 -1.515625 27.421875 -1.109375 C 27.046875 -0.367188 25.984375 0 24.234375 0 C 23.160156 0 22.421875 -0.078125 22.015625 -0.234375 C 21.609375 -0.398438 21.265625 -0.664062 20.984375 -1.03125 C 14.835938 -9.226562 10.796875 -14.582031 8.859375 -17.09375 L 8.859375 -3.609375 C 8.859375 -2.953125 8.835938 -2.472656 8.796875 -2.171875 C 8.753906 -1.867188 8.625 -1.515625 8.40625 -1.109375 C 8.019531 -0.367188 6.953125 0 5.203125 0 C 3.515625 0 2.476562 -0.367188 2.09375 -1.109375 C 1.875 -1.515625 1.742188 -1.878906 1.703125 -2.203125 C 1.660156 -2.535156 1.640625 -3.019531 1.640625 -3.65625 L 1.640625 -26.53125 C 1.640625 -27.5625 1.769531 -28.316406 2.03125 -28.796875 C 2.289062 -29.273438 2.679688 -29.597656 3.203125 -29.765625 C 3.722656 -29.929688 4.390625 -30.015625 5.203125 -30.015625 C 6.023438 -30.015625 6.675781 -29.9375 7.15625 -29.78125 C 7.632812 -29.632812 7.96875 -29.46875 8.15625 -29.28125 C 8.269531 -29.195312 8.585938 -28.835938 9.109375 -28.203125 C 14.867188 -20.359375 18.71875 -15.179688 20.65625 -12.671875 L 20.65625 -26.53125 C 20.65625 -27.5625 20.785156 -28.316406 21.046875 -28.796875 Z M 21.046875 -28.796875 "/></g></g></g><g fill="#050a30" fill-opacity="1"><g transform="translate(67.590773, 294.897667)"><g><path d="M 0.921875 0 L 0.1875 -11.859375 L 2.375 -11.859375 L 2.71875 -4.765625 L 2.828125 -2.515625 L 2.96875 -2.515625 L 4 -9.28125 L 6.296875 -9.28125 L 7.3125 -2.515625 L 7.46875 -2.515625 L 7.5625 -4.6875 L 7.90625 -11.859375 L 10.015625 -11.859375 L 9.28125 0 L 6.046875 0 L 5.1875 -6.546875 L 5.015625 -6.546875 L 4.140625 0 Z M 0.921875 0 "/></g></g></g><g fill="#050a30" fill-opacity="1"><g transform="translate(83.991042, 294.897667)"><g><path d="M 1.359375 0 L 1.359375 -11.859375 L 8.9375 -11.859375 L 8.9375 -9.78125 L 3.90625 -9.78125 L 3.90625 -7.0625 L 8.765625 -7.0625 L 8.765625 -4.96875 L 3.90625 -4.96875 L 3.90625 -2.09375 L 8.9375 -2.09375 L 8.9375 0 Z M 1.359375 0 "/></g></g></g><g fill="#050a30" fill-opacity="1"><g transform="translate(100.391312, 294.897667)"><g><path d="M 1.3125 -11.859375 L 5.46875 -11.859375 C 6.632812 -11.859375 7.523438 -11.578125 8.140625 -11.015625 C 8.765625 -10.453125 9.078125 -9.679688 9.078125 -8.703125 C 9.078125 -8.023438 8.910156 -7.484375 8.578125 -7.078125 C 8.242188 -6.679688 7.765625 -6.390625 7.140625 -6.203125 L 7.140625 -6.109375 C 7.878906 -5.921875 8.445312 -5.597656 8.84375 -5.140625 C 9.25 -4.691406 9.453125 -4.066406 9.453125 -3.265625 C 9.453125 -2.265625 9.132812 -1.46875 8.5 -0.875 C 7.875 -0.289062 6.992188 0 5.859375 0 L 1.3125 0 Z M 5.078125 -1.78125 C 5.691406 -1.78125 6.140625 -1.878906 6.421875 -2.078125 C 6.703125 -2.285156 6.84375 -2.664062 6.84375 -3.21875 L 6.84375 -3.703125 C 6.84375 -4.242188 6.703125 -4.617188 6.421875 -4.828125 C 6.140625 -5.035156 5.691406 -5.140625 5.078125 -5.140625 L 3.796875 -5.140625 L 3.796875 -1.78125 Z M 4.765625 -6.828125 C 5.359375 -6.828125 5.789062 -6.925781 6.0625 -7.125 C 6.34375 -7.320312 6.484375 -7.6875 6.484375 -8.21875 L 6.484375 -8.71875 C 6.484375 -9.238281 6.34375 -9.59375 6.0625 -9.78125 C 5.789062 -9.976562 5.359375 -10.078125 4.765625 -10.078125 L 3.796875 -10.078125 L 3.796875 -6.828125 Z M 4.765625 -6.828125 "/></g></g></g><g fill="#050a30" fill-opacity="1"><g transform="translate(116.791581, 294.897667)"><g/></g></g><g fill="#050a30" fill-opacity="1"><g transform="translate(133.19185, 294.897667)"><g><path d="M 1.09375 -11.859375 L 4.90625 -11.859375 C 6.507812 -11.859375 7.695312 -11.347656 8.46875 -10.328125 C 9.238281 -9.316406 9.625 -7.851562 9.625 -5.9375 C 9.625 -4.019531 9.238281 -2.550781 8.46875 -1.53125 C 7.695312 -0.507812 6.507812 0 4.90625 0 L 1.09375 0 Z M 4.75 -2 C 5.5 -2 6.050781 -2.242188 6.40625 -2.734375 C 6.757812 -3.222656 6.9375 -3.929688 6.9375 -4.859375 L 6.9375 -7.015625 C 6.9375 -7.929688 6.757812 -8.632812 6.40625 -9.125 C 6.050781 -9.613281 5.5 -9.859375 4.75 -9.859375 L 3.609375 -9.859375 L 3.609375 -2 Z M 4.75 -2 "/></g></g></g><g fill="#050a30" fill-opacity="1"><g transform="translate(149.592119, 294.897667)"><g><path d="M 1.359375 0 L 1.359375 -11.859375 L 8.9375 -11.859375 L 8.9375 -9.78125 L 3.90625 -9.78125 L 3.90625 -7.0625 L 8.765625 -7.0625 L 8.765625 -4.96875 L 3.90625 -4.96875 L 3.90625 -2.09375 L 8.9375 -2.09375 L 8.9375 0 Z M 1.359375 0 "/></g></g></g><g fill="#050a30" fill-opacity="1"><g transform="translate(165.992388, 294.897667)"><g><path d="M 3.296875 0 L 0.15625 -11.859375 L 2.984375 -11.859375 L 4.390625 -5.828125 L 5.078125 -2.40625 L 5.21875 -2.40625 L 5.9375 -5.828125 L 7.34375 -11.859375 L 10.046875 -11.859375 L 6.90625 0 Z M 3.296875 0 "/></g></g></g><g fill="#050a30" fill-opacity="1"><g transform="translate(182.392652, 294.897667)"><g><path d="M 1.359375 0 L 1.359375 -11.859375 L 8.9375 -11.859375 L 8.9375 -9.78125 L 3.90625 -9.78125 L 3.90625 -7.0625 L 8.765625 -7.0625 L 8.765625 -4.96875 L 3.90625 -4.96875 L 3.90625 -2.09375 L 8.9375 -2.09375 L 8.9375 0 Z M 1.359375 0 "/></g></g></g><g fill="#050a30" fill-opacity="1"><g transform="translate(198.792927, 294.897667)"><g><path d="M 1.5625 0 L 1.5625 -11.859375 L 4.125 -11.859375 L 4.125 -2.09375 L 9.234375 -2.09375 L 9.234375 0 Z M 1.5625 0 "/></g></g></g><g fill="#050a30" fill-opacity="1"><g transform="translate(215.193203, 294.897667)"><g><path d="M 5.09375 0.203125 C 3.507812 0.203125 2.335938 -0.332031 1.578125 -1.40625 C 0.828125 -2.488281 0.453125 -4 0.453125 -5.9375 C 0.453125 -7.875 0.828125 -9.378906 1.578125 -10.453125 C 2.335938 -11.523438 3.507812 -12.0625 5.09375 -12.0625 C 6.6875 -12.0625 7.859375 -11.523438 8.609375 -10.453125 C 9.359375 -9.378906 9.734375 -7.875 9.734375 -5.9375 C 9.734375 -4 9.359375 -2.488281 8.609375 -1.40625 C 7.859375 -0.332031 6.6875 0.203125 5.09375 0.203125 Z M 5.09375 -1.859375 C 5.820312 -1.859375 6.320312 -2.125 6.59375 -2.65625 C 6.875 -3.195312 7.015625 -3.945312 7.015625 -4.90625 L 7.015625 -6.96875 C 7.015625 -7.914062 6.875 -8.660156 6.59375 -9.203125 C 6.320312 -9.742188 5.820312 -10.015625 5.09375 -10.015625 C 4.375 -10.015625 3.875 -9.742188 3.59375 -9.203125 C 3.3125 -8.660156 3.171875 -7.914062 3.171875 -6.96875 L 3.171875 -4.890625 C 3.171875 -3.941406 3.3125 -3.195312 3.59375 -2.65625 C 3.875 -2.125 4.375 -1.859375 5.09375 -1.859375 Z M 5.09375 -1.859375 "/></g></g></g><g fill="#050a30" fill-opacity="1"><g transform="translate(231.593478, 294.897667)"><g><path d="M 1.296875 0 L 1.296875 -11.859375 L 5.875 -11.859375 C 6.457031 -11.859375 6.972656 -11.769531 7.421875 -11.59375 C 7.878906 -11.425781 8.265625 -11.175781 8.578125 -10.84375 C 8.890625 -10.519531 9.125 -10.125 9.28125 -9.65625 C 9.4375 -9.1875 9.515625 -8.664062 9.515625 -8.09375 C 9.515625 -7.507812 9.4375 -6.984375 9.28125 -6.515625 C 9.125 -6.054688 8.890625 -5.660156 8.578125 -5.328125 C 8.265625 -5.003906 7.878906 -4.753906 7.421875 -4.578125 C 6.972656 -4.398438 6.457031 -4.3125 5.875 -4.3125 L 3.859375 -4.3125 L 3.859375 0 Z M 3.859375 -6.375 L 5.234375 -6.375 C 5.835938 -6.375 6.253906 -6.488281 6.484375 -6.71875 C 6.710938 -6.945312 6.828125 -7.320312 6.828125 -7.84375 L 6.828125 -8.34375 C 6.828125 -8.863281 6.710938 -9.238281 6.484375 -9.46875 C 6.253906 -9.695312 5.835938 -9.8125 5.234375 -9.8125 L 3.859375 -9.8125 Z M 3.859375 -6.375 "/></g></g></g><g fill="#050a30" fill-opacity="1"><g transform="translate(247.993753, 294.897667)"><g><path d="M 7.328125 -5.28125 L 7.46875 -8.609375 L 7.3125 -8.609375 L 5.09375 -2.5 L 2.890625 -8.609375 L 2.734375 -8.609375 L 2.875 -5.28125 L 2.875 0 L 0.65625 0 L 0.65625 -11.859375 L 3.671875 -11.859375 L 5.140625 -7.875 L 5.265625 -7.875 L 6.734375 -11.859375 L 9.53125 -11.859375 L 9.53125 0 L 7.328125 0 Z M 7.328125 -5.28125 "/></g></g></g><g fill="#050a30" fill-opacity="1"><g transform="translate(264.394028, 294.897667)"><g><path d="M 1.359375 0 L 1.359375 -11.859375 L 8.9375 -11.859375 L 8.9375 -9.78125 L 3.90625 -9.78125 L 3.90625 -7.0625 L 8.765625 -7.0625 L 8.765625 -4.96875 L 3.90625 -4.96875 L 3.90625 -2.09375 L 8.9375 -2.09375 L 8.9375 0 Z M 1.359375 0 "/></g></g></g><g fill="#050a30" fill-opacity="1"><g transform="translate(280.794303, 294.897667)"><g><path d="M 3.40625 -7.890625 L 3.21875 -7.890625 L 3.21875 0 L 1.03125 0 L 1.03125 -11.859375 L 4.09375 -11.859375 L 6.796875 -3.984375 L 6.984375 -3.984375 L 6.984375 -11.859375 L 9.15625 -11.859375 L 9.15625 0 L 6.109375 0 Z M 3.40625 -7.890625 "/></g></g></g><g fill="#050a30" fill-opacity="1"><g transform="translate(297.194578, 294.897667)"><g><path d="M 6.375 -9.78125 L 6.375 0 L 3.828125 0 L 3.828125 -9.78125 L 0.40625 -9.78125 L 0.40625 -11.859375 L 9.796875 -11.859375 L 9.796875 -9.78125 Z M 6.375 -9.78125 "/></g></g></g></svg>