<svg xmlns="http://www.w3.org/2000/svg" xmlns:xlink="http://www.w3.org/1999/xlink" width="500" zoomAndPan="magnify" viewBox="0 0 375 374.999991" height="500" preserveAspectRatio="xMidYMid meet" version="1.0"><defs><clipPath id="bb69805c3a"><path d="M 8.488281 8.488281 L 366.238281 8.488281 L 366.238281 366.238281 L 8.488281 366.238281 Z M 8.488281 8.488281 " clip-rule="nonzero"/></clipPath></defs><g clip-path="url(#bb69805c3a)"><path fill="#000000" d="M 187.527344 136.824219 C 205.996094 136.824219 221.035156 121.78125 221.035156 103.316406 C 221.035156 84.847656 205.996094 69.808594 187.527344 69.808594 C 169.058594 69.808594 154.019531 84.847656 154.019531 103.316406 C 154.019531 121.78125 169.058594 136.824219 187.527344 136.824219 Z M 187.527344 80.808594 C 199.914062 80.808594 209.976562 90.875 209.976562 103.257812 C 209.976562 115.644531 199.914062 125.707031 187.527344 125.707031 C 175.140625 125.707031 165.078125 115.644531 165.078125 103.257812 C 165.078125 90.875 175.140625 80.808594 187.527344 80.808594 Z M 234.027344 266.097656 L 226.398438 266.097656 L 226.398438 169.113281 C 226.398438 156.617188 215.835938 146.445312 202.898438 146.445312 L 155.457031 146.445312 C 143.070312 146.445312 132.953125 156.175781 132.953125 168.121094 L 132.953125 173.316406 C 132.953125 185.039062 142.851562 194.605469 155.015625 194.605469 L 157.777344 194.605469 L 157.777344 266.097656 L 156.5625 266.097656 C 145.835938 266.097656 137.15625 274.503906 137.15625 284.84375 L 137.15625 291.867188 C 137.15625 302.425781 146.058594 310.996094 156.949219 310.996094 L 234.140625 310.996094 C 245.75 310.996094 255.152344 301.875 255.152344 290.707031 L 255.152344 286.613281 C 255.152344 275.332031 245.640625 266.097656 233.917969 266.097656 Z M 244.203125 290.707031 C 244.203125 295.792969 239.722656 299.9375 234.25 299.9375 L 157.058594 299.9375 C 152.25 299.9375 148.324219 296.289062 148.324219 291.867188 L 148.324219 284.84375 C 148.324219 280.585938 152.085938 277.160156 156.671875 277.160156 L 163.417969 277.160156 C 166.460938 277.160156 168.949219 274.671875 168.949219 271.628906 L 168.949219 189.074219 C 168.949219 186.035156 166.460938 183.546875 163.417969 183.546875 L 155.125 183.546875 C 149.042969 183.546875 144.121094 178.957031 144.121094 173.316406 L 144.121094 168.121094 C 144.121094 162.257812 149.265625 157.503906 155.566406 157.503906 L 203.007812 157.503906 C 209.867188 157.503906 215.449219 162.699219 215.449219 169.113281 L 215.449219 271.628906 C 215.449219 274.671875 217.9375 277.160156 220.980469 277.160156 L 234.140625 277.160156 C 239.78125 277.160156 244.3125 281.414062 244.3125 286.613281 L 244.3125 290.707031 Z M 187.527344 8.265625 C 88.828125 8.265625 8.542969 88.550781 8.542969 187.25 C 8.542969 285.949219 88.828125 366.234375 187.527344 366.234375 C 286.226562 366.234375 366.511719 285.949219 366.511719 187.25 C 366.511719 88.550781 286.226562 8.265625 187.527344 8.265625 Z M 187.527344 355.234375 C 94.910156 355.234375 19.601562 279.867188 19.601562 187.304688 C 19.601562 94.746094 94.964844 19.378906 187.527344 19.378906 C 280.089844 19.378906 355.453125 94.746094 355.453125 187.304688 C 355.453125 279.867188 280.089844 355.234375 187.527344 355.234375 Z M 187.527344 355.234375 " fill-opacity="1" fill-rule="nonzero"/></g></svg>