<svg xmlns="http://www.w3.org/2000/svg" xmlns:xlink="http://www.w3.org/1999/xlink" width="500" zoomAndPan="magnify" viewBox="0 0 375 374.999991" height="500" preserveAspectRatio="xMidYMid meet" version="1.0"><defs><clipPath id="49aa712d59"><path d="M 12.179688 121 L 253 121 L 253 362.429688 L 12.179688 362.429688 Z M 12.179688 121 " clip-rule="nonzero"/></clipPath><clipPath id="5f9227d74e"><path d="M 121 12.179688 L 362.429688 12.179688 L 362.429688 253 L 121 253 Z M 121 12.179688 " clip-rule="nonzero"/></clipPath></defs><g clip-path="url(#49aa712d59)"><path fill="#000000" d="M 242.03125 346.011719 C 242.03125 349.019531 239.566406 351.484375 236.558594 351.484375 L 28.597656 351.484375 C 25.585938 351.484375 23.125 349.019531 23.125 346.011719 L 23.125 138.050781 C 23.125 135.039062 25.585938 132.578125 28.597656 132.578125 L 36.804688 132.578125 L 36.804688 121.632812 L 28.597656 121.632812 C 19.566406 121.632812 12.179688 129.019531 12.179688 138.050781 L 12.179688 346.011719 C 12.179688 355.039062 19.566406 362.429688 28.597656 362.429688 L 236.558594 362.429688 C 245.585938 362.429688 252.976562 355.039062 252.976562 346.011719 L 252.976562 337.800781 L 242.03125 337.800781 Z M 242.03125 346.011719 " fill-opacity="1" fill-rule="nonzero"/></g><path fill="#000000" d="M 315.910156 272.128906 C 315.910156 275.140625 313.449219 277.601562 310.4375 277.601562 L 102.476562 277.601562 C 99.46875 277.601562 97.003906 275.140625 97.003906 272.128906 L 97.003906 64.167969 C 97.003906 61.160156 99.46875 58.695312 102.476562 58.695312 L 110.6875 58.695312 L 110.6875 47.75 L 102.476562 47.75 C 93.445312 47.75 86.058594 55.136719 86.058594 64.167969 L 86.058594 272.128906 C 86.058594 281.160156 93.445312 288.546875 102.476562 288.546875 L 310.4375 288.546875 C 319.46875 288.546875 326.855469 281.160156 326.855469 272.128906 L 326.855469 263.921875 L 315.910156 263.921875 Z M 315.910156 272.128906 " fill-opacity="1" fill-rule="nonzero"/><g clip-path="url(#5f9227d74e)"><path fill="#000000" d="M 346.011719 12.179688 L 138.050781 12.179688 C 129.019531 12.179688 121.632812 19.566406 121.632812 28.597656 L 121.632812 236.558594 C 121.632812 245.585938 129.019531 252.976562 138.050781 252.976562 L 346.011719 252.976562 C 355.039062 252.976562 362.429688 245.585938 362.429688 236.558594 L 362.429688 28.597656 C 362.429688 19.566406 355.039062 12.179688 346.011719 12.179688 Z M 326.855469 225.613281 L 157.203125 225.613281 C 154.195312 225.613281 151.730469 223.148438 151.730469 220.140625 C 151.730469 217.128906 154.195312 214.667969 157.203125 214.667969 L 326.855469 214.667969 C 329.867188 214.667969 332.328125 217.128906 332.328125 220.140625 C 332.328125 223.148438 329.867188 225.613281 326.855469 225.613281 Z M 326.855469 203.722656 L 157.203125 203.722656 C 154.195312 203.722656 151.730469 201.257812 151.730469 198.25 C 151.730469 195.238281 154.195312 192.777344 157.203125 192.777344 L 326.855469 192.777344 C 329.867188 192.777344 332.328125 195.238281 332.328125 198.25 C 332.328125 201.257812 329.867188 203.722656 326.855469 203.722656 Z M 326.855469 181.832031 L 157.203125 181.832031 C 154.195312 181.832031 151.730469 179.367188 151.730469 176.359375 C 151.730469 173.347656 154.195312 170.886719 157.203125 170.886719 L 326.855469 170.886719 C 329.867188 170.886719 332.328125 173.347656 332.328125 176.359375 C 332.328125 179.367188 329.867188 181.832031 326.855469 181.832031 Z M 326.855469 159.941406 L 157.203125 159.941406 C 154.195312 159.941406 151.730469 157.476562 151.730469 154.46875 C 151.730469 151.457031 154.195312 148.996094 157.203125 148.996094 L 326.855469 148.996094 C 329.867188 148.996094 332.328125 151.457031 332.328125 154.46875 C 332.328125 157.476562 329.867188 159.941406 326.855469 159.941406 Z M 326.855469 138.050781 L 157.203125 138.050781 C 154.195312 138.050781 151.730469 135.585938 151.730469 132.578125 C 151.730469 129.566406 154.195312 127.105469 157.203125 127.105469 L 326.855469 127.105469 C 329.867188 127.105469 332.328125 129.566406 332.328125 132.578125 C 332.328125 135.585938 329.867188 138.050781 326.855469 138.050781 Z M 326.855469 116.160156 L 157.203125 116.160156 C 154.195312 116.160156 151.730469 113.695312 151.730469 110.6875 C 151.730469 107.675781 154.195312 105.214844 157.203125 105.214844 L 326.855469 105.214844 C 329.867188 105.214844 332.328125 107.675781 332.328125 110.6875 C 332.328125 113.695312 329.867188 116.160156 326.855469 116.160156 Z M 181.832031 88.796875 C 181.832031 85.785156 184.292969 83.324219 187.304688 83.324219 L 296.757812 83.324219 C 299.765625 83.324219 302.230469 85.785156 302.230469 88.796875 C 302.230469 91.804688 299.765625 94.269531 296.757812 94.269531 L 187.304688 94.269531 C 184.292969 94.269531 181.832031 91.804688 181.832031 88.796875 Z M 351.484375 55.960938 L 132.578125 55.960938 L 132.578125 28.597656 C 132.578125 25.585938 135.039062 23.125 138.050781 23.125 L 346.011719 23.125 C 349.019531 23.125 351.484375 25.585938 351.484375 28.597656 Z M 351.484375 55.960938 " fill-opacity="1" fill-rule="nonzero"/></g><path fill="#000000" d="M 159.941406 34.070312 L 154.46875 34.070312 C 151.457031 34.070312 148.996094 36.53125 148.996094 39.542969 C 148.996094 42.550781 151.457031 45.015625 154.46875 45.015625 L 159.941406 45.015625 C 162.949219 45.015625 165.414062 42.550781 165.414062 39.542969 C 165.414062 36.53125 162.949219 34.070312 159.941406 34.070312 Z M 159.941406 34.070312 " fill-opacity="1" fill-rule="nonzero"/><path fill="#000000" d="M 187.304688 34.070312 L 181.832031 34.070312 C 178.820312 34.070312 176.359375 36.53125 176.359375 39.542969 C 176.359375 42.550781 178.820312 45.015625 181.832031 45.015625 L 187.304688 45.015625 C 190.3125 45.015625 192.777344 42.550781 192.777344 39.542969 C 192.777344 36.53125 190.3125 34.070312 187.304688 34.070312 Z M 187.304688 34.070312 " fill-opacity="1" fill-rule="nonzero"/><path fill="#000000" d="M 214.667969 34.070312 L 209.195312 34.070312 C 206.183594 34.070312 203.722656 36.53125 203.722656 39.542969 C 203.722656 42.550781 206.183594 45.015625 209.195312 45.015625 L 214.667969 45.015625 C 217.675781 45.015625 220.140625 42.550781 220.140625 39.542969 C 220.140625 36.53125 217.675781 34.070312 214.667969 34.070312 Z M 214.667969 34.070312 " fill-opacity="1" fill-rule="nonzero"/><path fill="#000000" d="M 75.113281 272.128906 L 75.113281 86.058594 L 64.167969 86.058594 C 55.136719 86.058594 47.75 93.445312 47.75 102.476562 L 47.75 310.4375 C 47.75 319.46875 55.136719 326.855469 64.167969 326.855469 L 272.128906 326.855469 C 281.160156 326.855469 288.546875 319.46875 288.546875 310.4375 L 288.546875 299.492188 L 102.476562 299.492188 C 87.425781 299.492188 75.113281 287.179688 75.113281 272.128906 Z M 75.113281 272.128906 " fill-opacity="1" fill-rule="nonzero"/></svg>